<svg width="236" height="249" viewBox="0 0 236 249" fill="none" xmlns="http://www.w3.org/2000/svg">
<path d="M218 164V118.5V75C218 75 223.375 85 227.5 85C231.625 85 236 75 236 75V118.5V164C236 164 232.25 154 227.375 154C222.5 154 218 164 218 164Z" fill="#191919"/>
<path d="M63 230.248L108.5 230.121L152 230C152 230 142.015 235.403 142.026 239.528C142.038 243.653 152.05 248 152.05 248L108.55 248.121L63.0502 248.248C63.0502 248.248 73.0397 244.47 73.0261 239.595C73.0125 234.72 63 230.248 63 230.248Z" fill="#191919"/>
<g filter="url(#filter0_di_90_516)">
<rect x="5" width="216" height="231" rx="24" fill="#111111"/>
<path opacity="0.1" fill-rule="evenodd" clip-rule="evenodd" d="M30.667 134.946C30.667 134.946 37.1601 133.702 44.5423 136.692C58.5828 142.378 59.3838 131.965 64.5902 126.944C69.3535 122.35 73.2983 125.153 78.6019 130.771C82.5135 134.914 88.2141 141.869 94.1178 140.749C99.5143 139.726 103.34 131.568 110.82 129.494C116.749 127.85 121.567 132.367 128.393 130.771C137.654 128.605 141.791 115.857 148.41 115.857C156.579 115.857 162.331 105.075 169.762 105.075C177.15 105.075 178.153 111.415 186.234 115.857C192.412 119.253 195.385 115.857 195.385 115.857V152.246H30.667V134.946Z" fill="url(#paint0_linear_90_516)"/>
<path d="M31 130.539C31 130.539 37.4647 129.497 44.8148 132.001C58.7941 136.763 59.5916 128.042 64.7753 123.837C69.5178 119.99 73.4455 122.337 78.7259 127.042C82.6204 130.512 88.2962 136.337 94.1741 135.399C99.5472 134.542 103.356 127.71 110.804 125.973C116.706 124.596 121.503 128.379 128.3 127.042C137.521 125.228 141.64 114.552 148.23 114.552C156.363 114.552 162.09 105.5 169.489 105.5C176.844 105.5 177.235 110.832 185.281 114.552C191.433 117.396 195 114.552 195 114.552" stroke="#DDCBA2" stroke-width="1.78425" stroke-linecap="round" stroke-linejoin="round"/>
<path d="M69.4111 169.228C68.4361 169.228 67.5586 169.017 66.7786 168.597C65.9986 168.177 65.3833 167.576 64.9326 166.796C64.4863 166.016 64.2631 165.126 64.2631 164.125C64.2631 163.124 64.4863 162.233 64.9326 161.453C65.3833 160.673 65.9986 160.073 66.7786 159.653C67.5586 159.233 68.4339 159.022 69.4046 159.022C70.1846 159.022 70.9018 159.161 71.5561 159.438C72.2148 159.711 72.7781 160.099 73.2461 160.602C73.3631 160.723 73.3523 160.842 73.2136 160.959L72.1866 161.688C72.0653 161.791 71.9461 161.781 71.8291 161.655C71.1791 161.005 70.3709 160.68 69.4046 160.68C68.4426 160.68 67.6431 160.998 67.0061 161.635C66.3691 162.272 66.0506 163.1 66.0506 164.118C66.0506 165.141 66.3691 165.973 67.0061 166.614C67.6431 167.251 68.4469 167.57 69.4176 167.57C69.8943 167.57 70.3384 167.485 70.7501 167.316C71.1661 167.143 71.5258 166.903 71.8291 166.595C71.9418 166.474 72.0609 166.463 72.1866 166.562L73.2136 167.284C73.3566 167.397 73.3761 167.511 73.2721 167.628C72.8084 168.135 72.2451 168.53 71.5821 168.811C70.9191 169.089 70.1954 169.228 69.4111 169.228ZM79.0826 169C78.9223 169 78.8269 168.924 78.7966 168.772L78.6406 168.174C78.1639 168.82 77.4749 169.143 76.5736 169.143C75.9323 169.143 75.3949 168.965 74.9616 168.61C74.5283 168.255 74.3116 167.745 74.3116 167.082C74.3116 166.385 74.5608 165.85 75.0591 165.477C75.5618 165.1 76.2074 164.911 76.9961 164.911C77.4468 164.911 77.9169 164.974 78.4066 165.1V164.671C78.4066 164.259 78.2809 163.96 78.0296 163.774C77.7826 163.583 77.4468 163.488 77.0221 163.488C76.5238 163.488 75.9496 163.607 75.2996 163.845C75.1306 163.906 75.0201 163.856 74.9681 163.696L74.7016 162.857C74.6496 162.697 74.7059 162.587 74.8706 162.526C75.6636 162.266 76.4284 162.136 77.1651 162.136C77.5768 162.136 77.9516 162.181 78.2896 162.272C78.6276 162.363 78.9288 162.504 79.1931 162.695C79.4618 162.881 79.6698 163.137 79.8171 163.462C79.9688 163.787 80.0446 164.166 80.0446 164.599V168.74C80.0446 168.913 79.9579 169 79.7846 169H79.0826ZM75.9496 167.056C75.9496 167.351 76.0449 167.574 76.2356 167.726C76.4306 167.878 76.6733 167.953 76.9636 167.953C77.1283 167.953 77.2886 167.927 77.4446 167.875C77.6049 167.823 77.7588 167.743 77.9061 167.635C78.0578 167.527 78.1791 167.373 78.2701 167.173C78.3611 166.974 78.4066 166.742 78.4066 166.478V166.192C78.0296 166.11 77.6873 166.068 77.3796 166.068C76.9463 166.068 76.5996 166.149 76.3396 166.309C76.0796 166.469 75.9496 166.718 75.9496 167.056ZM85.6265 169.143C85.2061 169.143 84.801 169.069 84.411 168.922C84.021 168.775 83.6743 168.564 83.371 168.291L83.3775 171.698C83.3775 171.871 83.2908 171.958 83.1175 171.958H81.9995C81.8261 171.958 81.7395 171.871 81.7395 171.698L81.7265 162.539C81.7265 162.366 81.8131 162.279 81.9865 162.279H82.6885C82.8401 162.279 82.9355 162.355 82.9745 162.506L83.163 163.221C83.4663 162.875 83.8303 162.608 84.255 162.422C84.684 162.231 85.1411 162.136 85.6265 162.136C86.2591 162.136 86.8376 162.294 87.362 162.61C87.8863 162.922 88.2958 163.347 88.5905 163.884C88.8851 164.417 89.0325 165.002 89.0325 165.639C89.0325 166.276 88.8851 166.864 88.5905 167.401C88.2958 167.934 87.8863 168.359 87.362 168.675C86.8376 168.987 86.2591 169.143 85.6265 169.143ZM83.9105 164.196C83.5118 164.595 83.3125 165.076 83.3125 165.639C83.3125 166.203 83.5118 166.684 83.9105 167.082C84.3091 167.481 84.7901 167.68 85.3535 167.68C85.9168 167.68 86.3978 167.481 86.7965 167.082C87.1951 166.684 87.3945 166.203 87.3945 165.639C87.3945 165.076 87.1951 164.595 86.7965 164.196C86.3978 163.798 85.9168 163.598 85.3535 163.598C84.7901 163.598 84.3091 163.798 83.9105 164.196ZM90.7335 169C90.5602 169 90.4735 168.913 90.4735 168.74V162.539C90.4735 162.366 90.5602 162.279 90.7335 162.279H91.8515C92.0249 162.279 92.1115 162.366 92.1115 162.539V168.74C92.1115 168.913 92.0249 169 91.8515 169H90.7335ZM90.285 160.628C90.285 160.346 90.3804 160.108 90.571 159.913C90.766 159.718 91.0044 159.62 91.286 159.62C91.572 159.62 91.8104 159.718 92.001 159.913C92.1917 160.104 92.287 160.342 92.287 160.628C92.287 160.914 92.1917 161.152 92.001 161.343C91.8104 161.534 91.572 161.629 91.286 161.629C91.0044 161.629 90.766 161.534 90.571 161.343C90.3804 161.152 90.285 160.914 90.285 160.628ZM96.3592 169.143C95.7222 169.143 95.2109 168.974 94.8252 168.636C94.4395 168.294 94.2467 167.813 94.2467 167.193V163.611H93.6877C93.5144 163.611 93.4277 163.525 93.4277 163.351V162.539C93.4277 162.366 93.5144 162.279 93.6877 162.279H94.2467V160.264C94.2467 160.091 94.3334 160.004 94.5067 160.004H95.6247C95.798 160.004 95.8847 160.091 95.8847 160.264V162.279H97.1392C97.3125 162.279 97.3992 162.366 97.3992 162.539V163.351C97.3992 163.525 97.3125 163.611 97.1392 163.611H95.8847V166.998C95.8847 167.514 96.1079 167.771 96.5542 167.771C96.7015 167.771 96.8489 167.748 96.9962 167.7C97.1652 167.648 97.2757 167.702 97.3277 167.862L97.5487 168.662C97.605 168.835 97.5509 168.948 97.3862 169C97.0829 169.095 96.7405 169.143 96.3592 169.143ZM103.356 169C103.196 169 103.1 168.924 103.07 168.772L102.914 168.174C102.437 168.82 101.748 169.143 100.847 169.143C100.206 169.143 99.6684 168.965 99.235 168.61C98.8017 168.255 98.585 167.745 98.585 167.082C98.585 166.385 98.8342 165.85 99.3325 165.477C99.8352 165.1 100.481 164.911 101.27 164.911C101.72 164.911 102.19 164.974 102.68 165.1V164.671C102.68 164.259 102.554 163.96 102.303 163.774C102.056 163.583 101.72 163.488 101.296 163.488C100.797 163.488 100.223 163.607 99.573 163.845C99.404 163.906 99.2935 163.856 99.2415 163.696L98.975 162.857C98.923 162.697 98.9794 162.587 99.144 162.526C99.937 162.266 100.702 162.136 101.439 162.136C101.85 162.136 102.225 162.181 102.563 162.272C102.901 162.363 103.202 162.504 103.467 162.695C103.735 162.881 103.943 163.137 104.091 163.462C104.242 163.787 104.318 164.166 104.318 164.599V168.74C104.318 168.913 104.231 169 104.058 169H103.356ZM100.223 167.056C100.223 167.351 100.318 167.574 100.509 167.726C100.704 167.878 100.947 167.953 101.237 167.953C101.402 167.953 101.562 167.927 101.718 167.875C101.878 167.823 102.032 167.743 102.18 167.635C102.331 167.527 102.453 167.373 102.544 167.173C102.635 166.974 102.68 166.742 102.68 166.478V166.192C102.303 166.11 101.961 166.068 101.653 166.068C101.22 166.068 100.873 166.149 100.613 166.309C100.353 166.469 100.223 166.718 100.223 167.056ZM108.06 169.143C107.423 169.143 106.912 168.974 106.526 168.636C106.141 168.294 105.948 167.813 105.948 167.193V159.51C105.948 159.337 106.035 159.25 106.208 159.25H107.326C107.499 159.25 107.586 159.337 107.586 159.51V166.998C107.586 167.514 107.809 167.771 108.255 167.771C108.403 167.771 108.55 167.748 108.697 167.7C108.866 167.648 108.977 167.702 109.029 167.862L109.25 168.662C109.306 168.827 109.252 168.939 109.087 169C108.819 169.095 108.476 169.143 108.06 169.143ZM114.692 169C114.518 169 114.432 168.913 114.432 168.74V159.51C114.432 159.337 114.518 159.25 114.692 159.25H117.857C120.319 159.25 121.549 160.335 121.549 162.506C121.549 163.581 121.255 164.407 120.665 164.983C120.08 165.555 119.231 165.841 118.117 165.841H116.219V168.74C116.219 168.913 116.133 169 115.959 169H114.692ZM116.219 164.261H117.63C117.755 164.261 117.862 164.261 117.948 164.261C118.035 164.257 118.158 164.244 118.319 164.222C118.483 164.196 118.622 164.164 118.735 164.125C118.852 164.082 118.98 164.017 119.118 163.93C119.261 163.843 119.376 163.741 119.463 163.624C119.554 163.503 119.63 163.349 119.69 163.163C119.751 162.972 119.781 162.758 119.781 162.519C119.781 162.29 119.751 162.084 119.69 161.902C119.634 161.716 119.562 161.566 119.476 161.453C119.393 161.336 119.283 161.237 119.144 161.154C119.01 161.068 118.886 161.005 118.774 160.966C118.661 160.927 118.52 160.897 118.351 160.875C118.187 160.849 118.059 160.836 117.968 160.836C117.881 160.832 117.768 160.829 117.63 160.829H116.219V164.261ZM126.059 169.143C125.383 169.143 124.77 168.996 124.22 168.701C123.674 168.406 123.243 167.992 122.926 167.459C122.614 166.922 122.458 166.315 122.458 165.639C122.458 164.963 122.614 164.359 122.926 163.826C123.243 163.289 123.674 162.873 124.22 162.578C124.77 162.283 125.383 162.136 126.059 162.136C126.74 162.136 127.355 162.283 127.905 162.578C128.456 162.873 128.887 163.289 129.199 163.826C129.515 164.359 129.673 164.963 129.673 165.639C129.673 166.315 129.515 166.922 129.199 167.459C128.887 167.992 128.456 168.406 127.905 168.701C127.355 168.996 126.74 169.143 126.059 169.143ZM124.642 164.177C124.274 164.558 124.09 165.046 124.09 165.639C124.09 166.233 124.274 166.723 124.642 167.108C125.015 167.49 125.487 167.68 126.059 167.68C126.636 167.68 127.11 167.49 127.483 167.108C127.856 166.723 128.042 166.233 128.042 165.639C128.042 165.046 127.856 164.558 127.483 164.177C127.11 163.791 126.636 163.598 126.059 163.598C125.487 163.598 125.015 163.791 124.642 164.177ZM133.172 169.143C132.535 169.143 132.023 168.974 131.638 168.636C131.252 168.294 131.059 167.813 131.059 167.193V159.51C131.059 159.337 131.146 159.25 131.319 159.25H132.437C132.611 159.25 132.697 159.337 132.697 159.51V166.998C132.697 167.514 132.92 167.771 133.367 167.771C133.514 167.771 133.661 167.748 133.809 167.7C133.978 167.648 134.088 167.702 134.14 167.862L134.361 168.662C134.418 168.827 134.363 168.939 134.199 169C133.93 169.095 133.588 169.143 133.172 169.143ZM135.815 169C135.641 169 135.555 168.913 135.555 168.74V162.539C135.555 162.366 135.641 162.279 135.815 162.279H136.933C137.106 162.279 137.193 162.366 137.193 162.539V168.74C137.193 168.913 137.106 169 136.933 169H135.815ZM135.815 161.343L136.842 159.692C136.915 159.571 137.019 159.51 137.154 159.51H138.22C138.328 159.51 138.397 159.54 138.428 159.601C138.462 159.657 138.447 159.731 138.382 159.822L137.063 161.492C136.98 161.601 136.876 161.655 136.751 161.655H135.997C135.893 161.655 135.823 161.625 135.789 161.564C135.754 161.503 135.763 161.43 135.815 161.343ZM141.44 169.143C140.803 169.143 140.292 168.974 139.906 168.636C139.521 168.294 139.328 167.813 139.328 167.193V163.611H138.769C138.595 163.611 138.509 163.525 138.509 163.351V162.539C138.509 162.366 138.595 162.279 138.769 162.279H139.328V160.264C139.328 160.091 139.414 160.004 139.588 160.004H140.706C140.879 160.004 140.966 160.091 140.966 160.264V162.279H142.22C142.394 162.279 142.48 162.366 142.48 162.539V163.351C142.48 163.525 142.394 163.611 142.22 163.611H140.966V166.998C140.966 167.514 141.189 167.771 141.635 167.771C141.783 167.771 141.93 167.748 142.077 167.7C142.246 167.648 142.357 167.702 142.409 167.862L142.63 168.662C142.686 168.835 142.632 168.948 142.467 169C142.164 169.095 141.822 169.143 141.44 169.143ZM144.232 169C144.058 169 143.972 168.913 143.972 168.74V162.539C143.972 162.366 144.058 162.279 144.232 162.279H145.35C145.523 162.279 145.61 162.366 145.61 162.539V168.74C145.61 168.913 145.523 169 145.35 169H144.232ZM143.783 160.628C143.783 160.346 143.878 160.108 144.069 159.913C144.264 159.718 144.502 159.62 144.784 159.62C145.07 159.62 145.308 159.718 145.499 159.913C145.69 160.104 145.785 160.342 145.785 160.628C145.785 160.914 145.69 161.152 145.499 161.343C145.308 161.534 145.07 161.629 144.784 161.629C144.502 161.629 144.264 161.534 144.069 161.343C143.878 161.152 143.783 160.914 143.783 160.628ZM150.683 169.143C150.002 169.143 149.385 168.996 148.83 168.701C148.28 168.406 147.844 167.992 147.524 167.459C147.207 166.922 147.049 166.315 147.049 165.639C147.049 164.963 147.207 164.359 147.524 163.826C147.844 163.289 148.28 162.873 148.83 162.578C149.385 162.283 150.002 162.136 150.683 162.136C151.246 162.136 151.77 162.251 152.256 162.48C152.741 162.71 153.146 163.029 153.471 163.436C153.523 163.501 153.543 163.566 153.53 163.631C153.517 163.696 153.476 163.752 153.406 163.8L152.626 164.476C152.501 164.563 152.381 164.541 152.269 164.411C152.087 164.16 151.857 163.962 151.58 163.819C151.307 163.672 151.008 163.598 150.683 163.598C150.106 163.598 149.625 163.791 149.24 164.177C148.858 164.563 148.668 165.05 148.668 165.639C148.668 166.229 148.858 166.716 149.24 167.102C149.625 167.488 150.106 167.68 150.683 167.68C151.003 167.68 151.302 167.609 151.58 167.466C151.857 167.323 152.085 167.126 152.262 166.874C152.379 166.74 152.498 166.716 152.62 166.803L153.406 167.492C153.554 167.596 153.577 167.711 153.478 167.836C153.166 168.239 152.761 168.558 152.262 168.792C151.768 169.026 151.242 169.143 150.683 169.143ZM158.115 169.143C157.439 169.143 156.826 168.996 156.276 168.701C155.73 168.406 155.298 167.992 154.982 167.459C154.67 166.922 154.514 166.315 154.514 165.639C154.514 164.963 154.67 164.359 154.982 163.826C155.298 163.289 155.73 162.873 156.276 162.578C156.826 162.283 157.439 162.136 158.115 162.136C158.795 162.136 159.411 162.283 159.961 162.578C160.511 162.873 160.943 163.289 161.255 163.826C161.571 164.359 161.729 164.963 161.729 165.639C161.729 166.315 161.571 166.922 161.255 167.459C160.943 167.992 160.511 168.406 159.961 168.701C159.411 168.996 158.795 169.143 158.115 169.143ZM156.698 164.177C156.33 164.558 156.146 165.046 156.146 165.639C156.146 166.233 156.33 166.723 156.698 167.108C157.071 167.49 157.543 167.68 158.115 167.68C158.691 167.68 159.166 167.49 159.539 167.108C159.911 166.723 160.098 166.233 160.098 165.639C160.098 165.046 159.911 164.558 159.539 164.177C159.166 163.791 158.691 163.598 158.115 163.598C157.543 163.598 157.071 163.791 156.698 164.177Z" fill="white"/>
</g>
<defs>
<filter id="filter0_di_90_516" x="0.881618" y="0" width="224.237" height="239.237" filterUnits="userSpaceOnUse" color-interpolation-filters="sRGB">
<feFlood flood-opacity="0" result="BackgroundImageFix"/>
<feColorMatrix in="SourceAlpha" type="matrix" values="0 0 0 0 0 0 0 0 0 0 0 0 0 0 0 0 0 0 127 0" result="hardAlpha"/>
<feOffset dy="4.11838"/>
<feGaussianBlur stdDeviation="2.05919"/>
<feComposite in2="hardAlpha" operator="out"/>
<feColorMatrix type="matrix" values="0 0 0 0 0.231667 0 0 0 0 0.231667 0 0 0 0 0.231667 0 0 0 0.3 0"/>
<feBlend mode="normal" in2="BackgroundImageFix" result="effect1_dropShadow_90_516"/>
<feBlend mode="normal" in="SourceGraphic" in2="effect1_dropShadow_90_516" result="shape"/>
<feColorMatrix in="SourceAlpha" type="matrix" values="0 0 0 0 0 0 0 0 0 0 0 0 0 0 0 0 0 0 127 0" result="hardAlpha"/>
<feOffset dy="4.11838"/>
<feGaussianBlur stdDeviation="2.05919"/>
<feComposite in2="hardAlpha" operator="arithmetic" k2="-1" k3="1"/>
<feColorMatrix type="matrix" values="0 0 0 0 1 0 0 0 0 1 0 0 0 0 1 0 0 0 0.2 0"/>
<feBlend mode="normal" in2="shape" result="effect2_innerShadow_90_516"/>
</filter>
<linearGradient id="paint0_linear_90_516" x1="60.8699" y1="121.918" x2="60.2641" y2="152.243" gradientUnits="userSpaceOnUse">
<stop stop-color="white"/>
<stop offset="1" stop-color="white" stop-opacity="0.01"/>
</linearGradient>
</defs>
</svg>
