<svg width="168" height="38" viewBox="0 0 168 38" fill="none" xmlns="http://www.w3.org/2000/svg">
<g filter="url(#filter0_i_84_332)">
<rect width="168" height="38" rx="12.7912" fill="#252424"/>
<path d="M52.12 25.304C50.8667 25.304 49.7547 25.0453 48.784 24.528C47.8133 24.0107 47.056 23.2747 46.512 22.32C45.968 21.36 45.696 20.2533 45.696 19C45.696 18.0613 45.8533 17.1973 46.168 16.408C46.488 15.6187 46.928 14.9547 47.488 14.416C48.0533 13.872 48.7307 13.4507 49.52 13.152C50.3147 12.848 51.1787 12.696 52.112 12.696C53.1627 12.696 54.1147 12.88 54.968 13.248C55.8267 13.616 56.5467 14.1387 57.128 14.816C57.256 14.9707 57.2347 15.1173 57.064 15.256L55.352 16.424C55.1973 16.536 55.0507 16.5147 54.912 16.36C54.1973 15.576 53.264 15.184 52.112 15.184C51.0293 15.184 50.144 15.5333 49.456 16.232C48.7733 16.9253 48.432 17.848 48.432 19C48.432 20.1467 48.7733 21.0693 49.456 21.768C50.144 22.4667 51.032 22.816 52.12 22.816C52.6907 22.816 53.2133 22.7147 53.688 22.512C54.168 22.304 54.576 22.0133 54.912 21.64C55.0507 21.4853 55.1973 21.464 55.352 21.576L57.064 22.744C57.2453 22.8773 57.2773 23.0133 57.16 23.152C56.5893 23.8347 55.8693 24.3653 55 24.744C54.136 25.1173 53.176 25.304 52.12 25.304ZM62.7751 25.184C61.4151 25.184 60.2898 24.76 59.3991 23.912C58.5138 23.064 58.0711 21.9813 58.0711 20.664C58.0711 19.3467 58.5138 18.264 59.3991 17.416C60.2898 16.568 61.4151 16.144 62.7751 16.144C63.6765 16.144 64.4871 16.336 65.2071 16.72C65.9271 17.0987 66.4898 17.6347 66.8951 18.328C67.3005 19.016 67.5031 19.7947 67.5031 20.664C67.5031 21.5333 67.3005 22.3147 66.8951 23.008C66.4898 23.696 65.9271 24.232 65.2071 24.616C64.4871 24.9947 63.6765 25.184 62.7751 25.184ZM61.1671 18.976C60.7565 19.424 60.5511 19.9867 60.5511 20.664C60.5511 21.3413 60.7565 21.904 61.1671 22.352C61.5831 22.8 62.1191 23.024 62.7751 23.024C63.4471 23.024 63.9885 22.8 64.3991 22.352C64.8151 21.904 65.0231 21.3413 65.0231 20.664C65.0231 19.9813 64.8151 19.4187 64.3991 18.976C63.9885 18.528 63.4471 18.304 62.7751 18.304C62.1191 18.304 61.5831 18.528 61.1671 18.976ZM75.2196 25C75.0063 25 74.8996 24.8933 74.8996 24.68V20.144C74.8996 19.6 74.753 19.152 74.4596 18.8C74.1716 18.448 73.7716 18.272 73.2596 18.272C72.7316 18.272 72.2996 18.448 71.9636 18.8C71.6276 19.152 71.4596 19.6053 71.4596 20.16V24.68C71.4596 24.8933 71.353 25 71.1396 25H69.2836C69.0703 25 68.9636 24.8933 68.9636 24.68V16.648C68.9636 16.4347 69.0703 16.328 69.2836 16.328H70.4916C70.673 16.328 70.7903 16.4187 70.8436 16.6L71.0996 17.4C71.9956 16.5627 73.0116 16.144 74.1476 16.144C74.649 16.144 75.0943 16.2187 75.4836 16.368C75.873 16.5173 76.185 16.7093 76.4196 16.944C76.6543 17.1787 76.8463 17.4587 76.9956 17.784C77.1503 18.104 77.2543 18.4213 77.3076 18.736C77.3663 19.0453 77.3956 19.368 77.3956 19.704V24.68C77.3956 24.8933 77.289 25 77.0756 25H75.2196ZM81.8233 25.184C81.0339 25.184 80.1433 25.064 79.1513 24.824C78.9166 24.76 78.8419 24.6267 78.9273 24.424L79.3673 23.08C79.4366 22.8987 79.5726 22.8347 79.7753 22.888C80.5753 23.144 81.2686 23.272 81.8553 23.272C82.5113 23.272 82.8393 23.056 82.8393 22.624C82.8393 22.5333 82.7993 22.448 82.7193 22.368C82.6446 22.2827 82.5299 22.2 82.3753 22.12C82.2206 22.0347 82.0633 21.9573 81.9033 21.888C81.7433 21.8133 81.5433 21.7253 81.3033 21.624C81.0633 21.5173 80.8579 21.4187 80.6873 21.328C80.4206 21.1893 80.1886 21.0507 79.9913 20.912C79.7939 20.7733 79.6019 20.608 79.4153 20.416C79.2286 20.2187 79.0846 19.9947 78.9833 19.744C78.8873 19.4933 78.8393 19.2187 78.8393 18.92C78.8393 18.44 78.9299 18.0187 79.1113 17.656C79.2979 17.288 79.5459 16.9973 79.8553 16.784C80.1699 16.5707 80.5166 16.4107 80.8953 16.304C81.2739 16.1973 81.6793 16.144 82.1113 16.144C82.8953 16.144 83.7166 16.28 84.5753 16.552C84.7779 16.6053 84.8473 16.7333 84.7833 16.936L84.3833 18.288C84.3246 18.5013 84.1886 18.5707 83.9753 18.496C83.2019 18.2347 82.5753 18.104 82.0953 18.104C81.5726 18.104 81.3113 18.272 81.3113 18.608C81.3113 18.704 81.3406 18.7947 81.3993 18.88C81.4633 18.96 81.5646 19.04 81.7033 19.12C81.8473 19.2 81.9779 19.2693 82.0953 19.328C82.2179 19.3813 82.3966 19.456 82.6313 19.552C82.8659 19.648 83.0499 19.7253 83.1833 19.784C83.4873 19.9173 83.7486 20.0533 83.9673 20.192C84.1913 20.3253 84.4153 20.496 84.6393 20.704C84.8633 20.9067 85.0339 21.1493 85.1513 21.432C85.2739 21.7147 85.3353 22.0293 85.3353 22.376C85.3353 22.792 85.2659 23.1653 85.1273 23.496C84.9939 23.8267 84.8153 24.096 84.5913 24.304C84.3673 24.512 84.1006 24.6853 83.7913 24.824C83.4819 24.9573 83.1646 25.0507 82.8393 25.104C82.5193 25.1573 82.1806 25.184 81.8233 25.184ZM93.5684 24.16C92.8377 24.8427 91.867 25.184 90.6564 25.184C89.4457 25.184 88.475 24.8427 87.7444 24.16C87.0137 23.472 86.6484 22.5307 86.6484 21.336V16.648C86.6484 16.4347 86.755 16.328 86.9684 16.328H88.8244C89.0377 16.328 89.1444 16.4347 89.1444 16.648V21.24C89.1444 21.768 89.2724 22.1867 89.5284 22.496C89.7897 22.8053 90.1657 22.96 90.6564 22.96C91.1524 22.96 91.5284 22.8 91.7844 22.48C92.0457 22.1547 92.1764 21.7413 92.1764 21.24V16.648C92.1764 16.4347 92.283 16.328 92.4964 16.328H94.3444C94.5577 16.328 94.6644 16.4347 94.6644 16.648V21.336C94.6644 22.5307 94.299 23.472 93.5684 24.16ZM99.3063 25.184C98.3943 25.184 97.6689 24.9573 97.1303 24.504C96.5916 24.0453 96.3223 23.392 96.3223 22.544V13.32C96.3223 13.1067 96.4289 13 96.6423 13H98.4983C98.7116 13 98.8183 13.1067 98.8183 13.32V22.352C98.8183 22.8907 99.0849 23.16 99.6183 23.16C99.7889 23.16 99.9703 23.136 100.162 23.088C100.376 23.0293 100.512 23.0987 100.57 23.296L100.906 24.608C100.97 24.8213 100.896 24.9573 100.682 25.016C100.304 25.128 99.8449 25.184 99.3063 25.184ZM105.062 25.184C104.155 25.184 103.433 24.9547 102.894 24.496C102.355 24.0373 102.086 23.3867 102.086 22.544V18.288H101.382C101.169 18.288 101.062 18.1813 101.062 17.968V16.648C101.062 16.4347 101.169 16.328 101.382 16.328H102.086V13.752C102.086 13.5387 102.193 13.432 102.406 13.432H104.262C104.475 13.432 104.582 13.5387 104.582 13.752V16.328H106.078C106.291 16.328 106.398 16.4347 106.398 16.648V17.968C106.398 18.1813 106.291 18.288 106.078 18.288H104.582V22.352C104.582 22.8907 104.849 23.16 105.382 23.16C105.542 23.16 105.723 23.136 105.926 23.088C106.134 23.0293 106.267 23.0987 106.326 23.296L106.67 24.608C106.734 24.8213 106.659 24.9573 106.446 25.016C106.035 25.128 105.574 25.184 105.062 25.184ZM113.739 25C113.552 25 113.435 24.9093 113.387 24.728L113.155 24C112.552 24.7893 111.712 25.184 110.635 25.184C110.102 25.184 109.616 25.0853 109.179 24.888C108.742 24.6907 108.382 24.3813 108.099 23.96C107.816 23.5387 107.675 23.04 107.675 22.464C107.675 21.584 107.995 20.904 108.635 20.424C109.275 19.9387 110.088 19.696 111.075 19.696C111.63 19.696 112.195 19.776 112.771 19.936V19.504C112.771 19.0293 112.624 18.6827 112.331 18.464C112.038 18.2453 111.643 18.136 111.147 18.136C110.518 18.136 109.8 18.2933 108.995 18.608C108.787 18.6933 108.651 18.6347 108.587 18.432L108.147 17.04C108.083 16.8373 108.152 16.704 108.355 16.64C109.379 16.3093 110.379 16.144 111.355 16.144C111.91 16.144 112.414 16.2053 112.867 16.328C113.326 16.4453 113.736 16.6293 114.099 16.88C114.467 17.1253 114.752 17.4667 114.955 17.904C115.163 18.336 115.267 18.8427 115.267 19.424V24.68C115.267 24.8933 115.16 25 114.947 25H113.739ZM110.163 22.44C110.163 22.7707 110.272 23.0213 110.491 23.192C110.715 23.3627 110.99 23.448 111.315 23.448C111.48 23.448 111.643 23.4213 111.803 23.368C111.963 23.3147 112.118 23.232 112.267 23.12C112.422 23.008 112.544 22.848 112.635 22.64C112.726 22.4267 112.771 22.1813 112.771 21.904V21.496C112.371 21.4 112.014 21.352 111.699 21.352C111.24 21.352 110.87 21.44 110.587 21.616C110.304 21.792 110.163 22.0667 110.163 22.44ZM117.348 25C117.135 25 117.028 24.8933 117.028 24.68L117.02 16.648C117.02 16.4347 117.127 16.328 117.34 16.328H118.54C118.721 16.328 118.839 16.4187 118.892 16.6L119.172 17.472C119.476 17.0133 119.839 16.6773 120.26 16.464C120.687 16.2507 121.129 16.144 121.588 16.144C121.849 16.144 122.116 16.1867 122.388 16.272C122.575 16.3307 122.641 16.4613 122.588 16.664L122.18 18.248C122.132 18.4453 121.999 18.52 121.78 18.472C121.524 18.408 121.273 18.376 121.028 18.376C120.025 18.376 119.524 19.0133 119.524 20.288V24.68C119.524 24.8933 119.417 25 119.204 25H117.348Z" fill="#DDCBA2"/>
</g>
<defs>
<filter id="filter0_i_84_332" x="0" y="0" width="168" height="41" filterUnits="userSpaceOnUse" color-interpolation-filters="sRGB">
<feFlood flood-opacity="0" result="BackgroundImageFix"/>
<feBlend mode="normal" in="SourceGraphic" in2="BackgroundImageFix" result="shape"/>
<feColorMatrix in="SourceAlpha" type="matrix" values="0 0 0 0 0 0 0 0 0 0 0 0 0 0 0 0 0 0 127 0" result="hardAlpha"/>
<feOffset dy="4"/>
<feGaussianBlur stdDeviation="1.5"/>
<feComposite in2="hardAlpha" operator="arithmetic" k2="-1" k3="1"/>
<feColorMatrix type="matrix" values="0 0 0 0 1 0 0 0 0 1 0 0 0 0 1 0 0 0 0.1 0"/>
<feBlend mode="normal" in2="shape" result="effect1_innerShadow_84_332"/>
</filter>
</defs>
</svg>
