<svg width="209" height="54" viewBox="0 0 209 54" fill="none" xmlns="http://www.w3.org/2000/svg">
<rect width="209" height="54" rx="16" fill="#272727"/>
<path d="M18.333 20.6667H43.6663M18.333 20.6667V34.6004C18.333 36.3739 18.333 37.2602 18.6782 37.9376C18.9818 38.5334 19.4658 39.0183 20.0617 39.3219C20.7384 39.6667 21.6247 39.6667 23.3948 39.6667H38.6046C40.3746 39.6667 41.2597 39.6667 41.9364 39.3219C42.5322 39.0183 43.0179 38.5334 43.3215 37.9376C43.6663 37.2608 43.6663 36.3758 43.6663 34.6057V20.6667M18.333 20.6667V19.4004C18.333 17.6269 18.333 16.7395 18.6782 16.0621C18.9818 15.4662 19.4658 14.9822 20.0617 14.6786C20.7391 14.3334 21.6265 14.3334 23.4 14.3334H24.6663M43.6663 20.6667V19.3952C43.6663 17.6252 43.6663 16.7388 43.3215 16.0621C43.0179 15.4662 42.5322 14.9822 41.9364 14.6786C41.259 14.3334 40.3735 14.3334 38.6 14.3334H37.333M24.6663 14.3334H37.333M24.6663 14.3334V11.1667M37.333 14.3334V11.1667M37.333 27.0001H24.6663" stroke="#DDCBA2" stroke-width="3" stroke-linecap="round" stroke-linejoin="round"/>
</svg>
