<svg width="86" height="74" viewBox="0 0 86 74" fill="none" xmlns="http://www.w3.org/2000/svg">
<g filter="url(#filter0_d_87_471)">
<path d="M5 32.5C5 18.9053 5 12.108 8.484 7.35643C9.56974 5.87566 10.8757 4.56974 12.3564 3.484C17.108 0 23.9053 0 37.5 0H51.4545C65.1549 0 72.0051 0 76.3512 4.14399C76.5234 4.30824 76.6918 4.47656 76.856 4.64881C81 8.99491 81 15.8451 81 29.5455V29.5455C81 45.9859 81 54.2061 76.0272 59.4214C75.8301 59.6281 75.6281 59.8301 75.4214 60.0272C70.2061 65 61.9859 65 45.5455 65H37.5C23.9053 65 17.108 65 12.3564 61.516C10.8757 60.4303 9.56974 59.1243 8.484 57.6436C5 52.892 5 46.0947 5 32.5V32.5Z" fill="#313030" shape-rendering="crispEdges"/>
<path fill-rule="evenodd" clip-rule="evenodd" d="M43 16C41.5381 16 40.1042 16.4276 38.854 17.2363L30.854 22.4112C29.6776 23.1721 28.7048 24.244 28.0297 25.5234C27.3546 26.8027 27 28.2462 27 29.7145V40.4605C27 42.7254 27.8429 44.8974 29.3431 46.4989C30.8434 48.1003 32.8783 49 35 49H51C53.1217 49 55.1566 48.1003 56.6569 46.4989C58.1571 44.8974 59 42.7254 59 40.4605V29.7128C58.9997 28.2448 58.6449 26.8013 57.9698 25.5224C57.2947 24.2435 56.3222 23.172 55.146 22.4112L47.146 17.2363C45.8958 16.4276 44.4619 16 43 16ZM40.5124 20.1575C41.2626 19.6723 42.1229 19.4158 43 19.4158C43.8771 19.4158 44.7374 19.6723 45.4876 20.1575L53.4876 25.3324C54.1933 25.7889 54.7768 26.4318 55.1819 27.1992C55.5869 27.9664 55.7997 28.8322 55.8 29.7128V40.4605C55.8 41.8194 55.2943 43.1227 54.3941 44.0835C53.4939 45.0444 52.273 45.5842 51 45.5842H49.4V40.4605C49.4 38.6487 48.7257 36.9111 47.5255 35.6299C46.3253 34.3487 44.6974 33.629 43 33.629C41.3026 33.629 39.6747 34.3487 38.4745 35.6299C37.2743 36.9111 36.6 38.6487 36.6 40.4605V45.5842H35C33.727 45.5842 32.5061 45.0444 31.6059 44.0835C30.7057 43.1227 30.2 41.8194 30.2 40.4605V29.7145C30.2 28.8335 30.4128 27.9674 30.8178 27.1998C31.2229 26.4322 31.8065 25.789 32.5124 25.3324L40.5124 20.1575ZM45.2627 38.0452C45.8629 38.6858 46.2 39.5546 46.2 40.4605V45.5842H39.8V40.4605C39.8 39.5546 40.1371 38.6858 40.7373 38.0452C41.3374 37.4046 42.1513 37.0448 43 37.0448C43.8487 37.0448 44.6626 37.4046 45.2627 38.0452Z" fill="#DDCBA2"/>
</g>
<defs>
<filter id="filter0_d_87_471" x="0.736264" y="0" width="84.5275" height="73.5275" filterUnits="userSpaceOnUse" color-interpolation-filters="sRGB">
<feFlood flood-opacity="0" result="BackgroundImageFix"/>
<feColorMatrix in="SourceAlpha" type="matrix" values="0 0 0 0 0 0 0 0 0 0 0 0 0 0 0 0 0 0 127 0" result="hardAlpha"/>
<feOffset dy="4.26374"/>
<feGaussianBlur stdDeviation="2.13187"/>
<feComposite in2="hardAlpha" operator="out"/>
<feColorMatrix type="matrix" values="0 0 0 0 0.231667 0 0 0 0 0.231667 0 0 0 0 0.231667 0 0 0 0.3 0"/>
<feBlend mode="normal" in2="BackgroundImageFix" result="effect1_dropShadow_87_471"/>
<feBlend mode="normal" in="SourceGraphic" in2="effect1_dropShadow_87_471" result="shape"/>
</filter>
</defs>
</svg>
