<svg width="226" height="240" viewBox="0 0 226 240" fill="none" xmlns="http://www.w3.org/2000/svg">
<g filter="url(#filter0_di_91_536)">
<rect x="5" width="216" height="231" rx="24" fill="#111111"/>
<rect x="31" y="24" width="56" height="56" rx="15.4545" fill="url(#paint0_linear_91_536)"/>
<g clip-path="url(#clip0_91_536)">
<path d="M50.1787 55.362L51.2137 44.49H55.9637L56.8357 53.639" stroke="black" stroke-width="1.5" stroke-linecap="round" stroke-linejoin="round"/>
<path d="M47.75 63.24H70.25V51.6C70.25 51.3058 70.1332 51.0238 69.9252 50.8158C69.7172 50.6078 69.4351 50.491 69.141 50.491C69.0472 50.4909 68.9537 50.503 68.863 50.527L48.5 55.8C48.2854 55.8556 48.0954 55.981 47.9598 56.1564C47.8242 56.3318 47.7508 56.5473 47.751 56.769L47.75 63.24Z" stroke="black" stroke-width="1.5" stroke-linecap="round" stroke-linejoin="round"/>
<path d="M55.0049 40.879C56.037 40.8606 57.0602 41.0728 57.9999 41.5C65.4289 44.672 68.4999 40.76 68.4999 40.76" stroke="black" stroke-width="1.5" stroke-linecap="round" stroke-linejoin="round"/>
<path d="M66.75 63.241H61.75V58.741C61.75 58.4758 61.8554 58.2214 62.0429 58.0339C62.2304 57.8463 62.4848 57.741 62.75 57.741H65.75C66.0152 57.741 66.2696 57.8463 66.4571 58.0339C66.6446 58.2214 66.75 58.4758 66.75 58.741V63.241Z" stroke="black" stroke-width="1.5" stroke-linecap="round" stroke-linejoin="round"/>
<path d="M58.25 59.24H56.75" stroke="black" stroke-width="1.5" stroke-linecap="round" stroke-linejoin="round"/>
<path d="M53.25 59.24H51.75" stroke="black" stroke-width="1.5" stroke-linecap="round" stroke-linejoin="round"/>
</g>
<path opacity="0.1" fill-rule="evenodd" clip-rule="evenodd" d="M30.667 134.946C30.667 134.946 37.1601 133.702 44.5423 136.692C58.5828 142.378 59.3838 131.965 64.5902 126.944C69.3535 122.35 73.2983 125.153 78.6019 130.771C82.5135 134.914 88.2141 141.869 94.1178 140.749C99.5143 139.726 103.34 131.568 110.82 129.494C116.749 127.85 121.567 132.367 128.393 130.771C137.654 128.605 141.791 115.857 148.41 115.857C156.579 115.857 162.331 105.075 169.762 105.075C177.15 105.075 178.153 111.415 186.234 115.857C192.412 119.253 195.385 115.857 195.385 115.857V152.246H30.667V134.946Z" fill="url(#paint1_linear_91_536)"/>
<path d="M31 130.539C31 130.539 37.4647 129.497 44.8148 132.001C58.7941 136.763 59.5916 128.042 64.7753 123.837C69.5178 119.99 73.4455 122.337 78.7259 127.042C82.6204 130.512 88.2962 136.337 94.1741 135.399C99.5472 134.542 103.356 127.71 110.804 125.973C116.706 124.596 121.503 128.379 128.3 127.042C137.521 125.228 141.64 114.552 148.23 114.552C156.363 114.552 162.09 105.5 169.489 105.5C176.844 105.5 177.235 110.832 185.281 114.552C191.433 117.396 195 114.552 195 114.552" stroke="#DDCBA2" stroke-width="1.78425" stroke-linecap="round" stroke-linejoin="round"/>
<path d="M61.6566 169C61.4833 169 61.3966 168.913 61.3966 168.74V160.829H59.2841C59.1108 160.829 59.0241 160.743 59.0241 160.569V159.51C59.0241 159.337 59.1108 159.25 59.2841 159.25H65.3031C65.4764 159.25 65.5631 159.337 65.5631 159.51V160.569C65.5631 160.743 65.4764 160.829 65.3031 160.829H63.1906V168.74C63.1906 168.913 63.1039 169 62.9306 169H61.6566ZM68.8318 169.143C68.3595 169.143 67.9153 169.061 67.4993 168.896C67.0833 168.731 66.7193 168.502 66.4073 168.207C66.0996 167.908 65.8548 167.537 65.6728 167.095C65.4908 166.649 65.3998 166.164 65.3998 165.639C65.3998 164.946 65.5471 164.333 65.8418 163.8C66.1365 163.263 66.5373 162.851 67.0443 162.565C67.5513 162.279 68.1233 162.136 68.7603 162.136C69.7266 162.136 70.5175 162.454 71.1328 163.091C71.7481 163.724 72.0558 164.554 72.0558 165.581C72.0558 165.689 72.0341 165.765 71.9908 165.808C71.9475 165.852 71.876 165.873 71.7763 165.873H66.9988C67.0205 166.437 67.2111 166.883 67.5708 167.212C67.9305 167.537 68.366 167.7 68.8773 167.7C69.5446 167.7 70.134 167.438 70.6453 166.913C70.7623 166.805 70.875 166.796 70.9833 166.887L71.6073 167.57C71.733 167.67 71.7308 167.789 71.6008 167.927C71.2281 168.317 70.8013 168.619 70.3203 168.831C69.8393 169.039 69.3431 169.143 68.8318 169.143ZM67.1158 164.723H70.3528C70.2618 164.316 70.0711 164.008 69.7808 163.8C69.4905 163.592 69.1611 163.488 68.7928 163.488C68.4201 163.488 68.0735 163.592 67.7528 163.8C67.4365 164.008 67.2241 164.316 67.1158 164.723ZM75.457 169.143C74.8243 169.143 74.1483 169.037 73.429 168.824C73.2513 168.772 73.195 168.664 73.26 168.499L73.559 167.635C73.6153 167.483 73.7258 167.438 73.8905 167.498C74.4712 167.719 74.9998 167.83 75.4765 167.83C76.0572 167.83 76.3475 167.62 76.3475 167.199C76.3475 167.121 76.3215 167.046 76.2695 166.972C76.2175 166.898 76.133 166.825 76.016 166.751C75.899 166.677 75.7863 166.612 75.678 166.556C75.574 166.5 75.4267 166.426 75.236 166.335C75.0497 166.244 74.9023 166.168 74.794 166.107C74.5643 165.982 74.3715 165.867 74.2155 165.763C74.0595 165.659 73.8992 165.529 73.7345 165.373C73.5698 165.213 73.4442 165.035 73.3575 164.84C73.2752 164.641 73.234 164.422 73.234 164.183C73.234 163.841 73.299 163.538 73.429 163.273C73.559 163.005 73.7367 162.79 73.962 162.63C74.1873 162.465 74.4408 162.342 74.7225 162.259C75.0042 162.177 75.3053 162.136 75.626 162.136C76.1893 162.136 76.7938 162.238 77.4395 162.441C77.6085 162.489 77.6627 162.597 77.602 162.766L77.3355 163.618C77.2835 163.783 77.173 163.835 77.004 163.774C76.4623 163.579 76.003 163.481 75.626 163.481C75.392 163.481 75.2057 163.527 75.067 163.618C74.9283 163.705 74.859 163.832 74.859 164.001C74.859 164.062 74.872 164.121 74.898 164.177C74.924 164.233 74.9652 164.29 75.0215 164.346C75.0778 164.398 75.1342 164.446 75.1905 164.489C75.2512 164.528 75.3313 164.573 75.431 164.625C75.5307 164.677 75.6195 164.723 75.6975 164.762C75.7755 164.797 75.8773 164.844 76.003 164.905C76.133 164.961 76.2392 165.009 76.3215 165.048C76.5642 165.165 76.77 165.278 76.939 165.386C77.1123 165.49 77.2878 165.622 77.4655 165.782C77.6432 165.943 77.7775 166.131 77.8685 166.348C77.9638 166.565 78.0115 166.803 78.0115 167.063C78.0115 167.436 77.94 167.763 77.797 168.045C77.654 168.322 77.459 168.538 77.212 168.694C76.965 168.846 76.6942 168.959 76.3995 169.033C76.1092 169.106 75.795 169.143 75.457 169.143ZM82.7176 169.143C82.0416 169.143 81.4285 168.996 80.8781 168.701C80.3321 168.406 79.901 167.992 79.5846 167.459C79.2726 166.922 79.1166 166.315 79.1166 165.639C79.1166 164.963 79.2726 164.359 79.5846 163.826C79.901 163.289 80.3321 162.873 80.8781 162.578C81.4285 162.283 82.0416 162.136 82.7176 162.136C83.398 162.136 84.0133 162.283 84.5636 162.578C85.114 162.873 85.5451 163.289 85.8571 163.826C86.1735 164.359 86.3316 164.963 86.3316 165.639C86.3316 166.315 86.1735 166.922 85.8571 167.459C85.5451 167.992 85.114 168.406 84.5636 168.701C84.0133 168.996 83.398 169.143 82.7176 169.143ZM81.3006 164.177C80.9323 164.558 80.7481 165.046 80.7481 165.639C80.7481 166.233 80.9323 166.723 81.3006 167.108C81.6733 167.49 82.1456 167.68 82.7176 167.68C83.294 167.68 83.7685 167.49 84.1411 167.108C84.5138 166.723 84.7001 166.233 84.7001 165.639C84.7001 165.046 84.5138 164.558 84.1411 164.177C83.7685 163.791 83.294 163.598 82.7176 163.598C82.1456 163.598 81.6733 163.791 81.3006 164.177ZM90.6164 169.143C89.7368 169.143 89.0239 168.889 88.4779 168.382C87.9363 167.875 87.6654 167.173 87.6654 166.276V162.539C87.6654 162.366 87.7521 162.279 87.9254 162.279H89.0434C89.2168 162.279 89.3034 162.366 89.3034 162.539V166.224C89.3034 166.675 89.4204 167.026 89.6544 167.277C89.8884 167.524 90.2091 167.648 90.6164 167.648C91.0281 167.648 91.3509 167.52 91.5849 167.264C91.8189 167.009 91.9359 166.662 91.9359 166.224V162.539C91.9359 162.366 92.0226 162.279 92.1959 162.279H93.3139C93.4873 162.279 93.5739 162.366 93.5739 162.539V166.276C93.5739 167.173 93.3009 167.875 92.7549 168.382C92.2133 168.889 91.5004 169.143 90.6164 169.143ZM95.4816 169C95.3083 169 95.2216 168.913 95.2216 168.74L95.2151 162.539C95.2151 162.366 95.3018 162.279 95.4751 162.279H96.1771C96.3288 162.279 96.4241 162.355 96.4631 162.506L96.6451 163.215C96.8704 162.847 97.1413 162.576 97.4576 162.402C97.7783 162.225 98.1206 162.136 98.4846 162.136C98.6666 162.136 98.8681 162.166 99.0891 162.227C99.2451 162.275 99.3014 162.381 99.2581 162.545L99.0046 163.514C98.9656 163.67 98.8594 163.731 98.6861 163.696C98.4998 163.653 98.3308 163.631 98.1791 163.631C97.7544 163.631 97.4273 163.78 97.1976 164.079C96.9723 164.374 96.8596 164.805 96.8596 165.373V168.74C96.8596 168.913 96.7729 169 96.5996 169H95.4816ZM103.474 169.143C102.798 169.143 102.185 168.996 101.635 168.701C101.089 168.406 100.658 167.992 100.341 167.459C100.029 166.922 99.8735 166.315 99.8735 165.639C99.8735 164.963 100.029 164.359 100.341 163.826C100.658 163.289 101.089 162.873 101.635 162.578C102.185 162.283 102.798 162.136 103.474 162.136C104.155 162.136 104.77 162.283 105.32 162.578C105.871 162.873 106.302 163.289 106.614 163.826C106.93 164.359 107.088 164.963 107.088 165.639C107.088 166.315 106.93 166.922 106.614 167.459C106.302 167.992 105.871 168.406 105.32 168.701C104.77 168.996 104.155 169.143 103.474 169.143ZM102.057 164.177C101.689 164.558 101.505 165.046 101.505 165.639C101.505 166.233 101.689 166.723 102.057 167.108C102.43 167.49 102.902 167.68 103.474 167.68C104.051 167.68 104.525 167.49 104.898 167.108C105.271 166.723 105.457 166.233 105.457 165.639C105.457 165.046 105.271 164.558 104.898 164.177C104.525 163.791 104.051 163.598 103.474 163.598C102.902 163.598 102.43 163.791 102.057 164.177ZM112.788 169C112.614 169 112.528 168.913 112.528 168.74V159.471C112.528 159.237 112.593 159.094 112.723 159.042C112.853 158.986 113 159.044 113.165 159.217L118.729 165.451V159.51C118.729 159.337 118.815 159.25 118.989 159.25H120.211C120.384 159.25 120.471 159.337 120.471 159.51V168.772C120.471 169.007 120.401 169.147 120.263 169.195C120.128 169.247 119.975 169.182 119.801 169L114.27 162.714V168.74C114.27 168.913 114.183 169 114.01 169H112.788ZM126.792 169C126.631 169 126.536 168.924 126.506 168.772L126.35 168.174C125.873 168.82 125.184 169.143 124.283 169.143C123.641 169.143 123.104 168.965 122.671 168.61C122.237 168.255 122.021 167.745 122.021 167.082C122.021 166.385 122.27 165.85 122.768 165.477C123.271 165.1 123.916 164.911 124.705 164.911C125.156 164.911 125.626 164.974 126.116 165.1V164.671C126.116 164.259 125.99 163.96 125.739 163.774C125.492 163.583 125.156 163.488 124.731 163.488C124.233 163.488 123.659 163.607 123.009 163.845C122.84 163.906 122.729 163.856 122.677 163.696L122.411 162.857C122.359 162.697 122.415 162.587 122.58 162.526C123.373 162.266 124.137 162.136 124.874 162.136C125.286 162.136 125.661 162.181 125.999 162.272C126.337 162.363 126.638 162.504 126.902 162.695C127.171 162.881 127.379 163.137 127.526 163.462C127.678 163.787 127.754 164.166 127.754 164.599V168.74C127.754 168.913 127.667 169 127.494 169H126.792ZM123.659 167.056C123.659 167.351 123.754 167.574 123.945 167.726C124.14 167.878 124.382 167.953 124.673 167.953C124.837 167.953 124.998 167.927 125.154 167.875C125.314 167.823 125.468 167.743 125.615 167.635C125.767 167.527 125.888 167.373 125.979 167.173C126.07 166.974 126.116 166.742 126.116 166.478V166.192C125.739 166.11 125.396 166.068 125.089 166.068C124.655 166.068 124.309 166.149 124.049 166.309C123.789 166.469 123.659 166.718 123.659 167.056ZM132.757 169.143C132.077 169.143 131.459 168.996 130.904 168.701C130.354 168.406 129.919 167.992 129.598 167.459C129.282 166.922 129.123 166.315 129.123 165.639C129.123 164.963 129.282 164.359 129.598 163.826C129.919 163.289 130.354 162.873 130.904 162.578C131.459 162.283 132.077 162.136 132.757 162.136C133.32 162.136 133.845 162.251 134.33 162.48C134.815 162.71 135.22 163.029 135.545 163.436C135.597 163.501 135.617 163.566 135.604 163.631C135.591 163.696 135.55 163.752 135.48 163.8L134.7 164.476C134.575 164.563 134.456 164.541 134.343 164.411C134.161 164.16 133.931 163.962 133.654 163.819C133.381 163.672 133.082 163.598 132.757 163.598C132.181 163.598 131.7 163.791 131.314 164.177C130.933 164.563 130.742 165.05 130.742 165.639C130.742 166.229 130.933 166.716 131.314 167.102C131.7 167.488 132.181 167.68 132.757 167.68C133.078 167.68 133.377 167.609 133.654 167.466C133.931 167.323 134.159 167.126 134.336 166.874C134.453 166.74 134.573 166.716 134.694 166.803L135.48 167.492C135.628 167.596 135.652 167.711 135.552 167.836C135.24 168.239 134.835 168.558 134.336 168.792C133.842 169.026 133.316 169.143 132.757 169.143ZM137.236 169C137.063 169 136.976 168.913 136.976 168.74V162.539C136.976 162.366 137.063 162.279 137.236 162.279H138.354C138.528 162.279 138.614 162.366 138.614 162.539V168.74C138.614 168.913 138.528 169 138.354 169H137.236ZM136.788 160.628C136.788 160.346 136.883 160.108 137.074 159.913C137.269 159.718 137.507 159.62 137.789 159.62C138.075 159.62 138.313 159.718 138.504 159.913C138.695 160.104 138.79 160.342 138.79 160.628C138.79 160.914 138.695 161.152 138.504 161.343C138.313 161.534 138.075 161.629 137.789 161.629C137.507 161.629 137.269 161.534 137.074 161.343C136.883 161.152 136.788 160.914 136.788 160.628ZM143.655 169.143C142.979 169.143 142.366 168.996 141.816 168.701C141.27 168.406 140.838 167.992 140.522 167.459C140.21 166.922 140.054 166.315 140.054 165.639C140.054 164.963 140.21 164.359 140.522 163.826C140.838 163.289 141.27 162.873 141.816 162.578C142.366 162.283 142.979 162.136 143.655 162.136C144.335 162.136 144.951 162.283 145.501 162.578C146.051 162.873 146.483 163.289 146.795 163.826C147.111 164.359 147.269 164.963 147.269 165.639C147.269 166.315 147.111 166.922 146.795 167.459C146.483 167.992 146.051 168.406 145.501 168.701C144.951 168.996 144.335 169.143 143.655 169.143ZM142.238 164.177C141.87 164.558 141.686 165.046 141.686 165.639C141.686 166.233 141.87 166.723 142.238 167.108C142.611 167.49 143.083 167.68 143.655 167.68C144.231 167.68 144.706 167.49 145.079 167.108C145.451 166.723 145.638 166.233 145.638 165.639C145.638 165.046 145.451 164.558 145.079 164.177C144.706 163.791 144.231 163.598 143.655 163.598C143.083 163.598 142.611 163.791 142.238 164.177ZM153.445 169C153.272 169 153.185 168.913 153.185 168.74V165.08C153.185 164.634 153.064 164.272 152.821 163.995C152.579 163.718 152.249 163.579 151.833 163.579C151.409 163.579 151.053 163.72 150.767 164.001C150.486 164.279 150.345 164.651 150.345 165.119V168.74C150.345 168.913 150.258 169 150.085 169H148.967C148.794 169 148.707 168.913 148.707 168.74V162.539C148.707 162.366 148.794 162.279 148.967 162.279H149.669C149.821 162.279 149.916 162.355 149.955 162.506L150.111 163.091C150.752 162.454 151.493 162.136 152.334 162.136C152.776 162.136 153.162 162.214 153.491 162.37C153.825 162.526 154.085 162.736 154.271 163C154.457 163.265 154.596 163.553 154.687 163.865C154.778 164.173 154.823 164.5 154.823 164.846V168.74C154.823 168.913 154.737 169 154.563 169H153.445ZM160.955 169C160.794 169 160.699 168.924 160.669 168.772L160.513 168.174C160.036 168.82 159.347 169.143 158.446 169.143C157.804 169.143 157.267 168.965 156.834 168.61C156.4 168.255 156.184 167.745 156.184 167.082C156.184 166.385 156.433 165.85 156.931 165.477C157.434 165.1 158.079 164.911 158.868 164.911C159.319 164.911 159.789 164.974 160.279 165.1V164.671C160.279 164.259 160.153 163.96 159.902 163.774C159.655 163.583 159.319 163.488 158.894 163.488C158.396 163.488 157.822 163.607 157.172 163.845C157.003 163.906 156.892 163.856 156.84 163.696L156.574 162.857C156.522 162.697 156.578 162.587 156.743 162.526C157.536 162.266 158.3 162.136 159.037 162.136C159.449 162.136 159.824 162.181 160.162 162.272C160.5 162.363 160.801 162.504 161.065 162.695C161.334 162.881 161.542 163.137 161.689 163.462C161.841 163.787 161.917 164.166 161.917 164.599V168.74C161.917 168.913 161.83 169 161.657 169H160.955ZM157.822 167.056C157.822 167.351 157.917 167.574 158.108 167.726C158.303 167.878 158.545 167.953 158.836 167.953C159 167.953 159.161 167.927 159.317 167.875C159.477 167.823 159.631 167.743 159.778 167.635C159.93 167.527 160.051 167.373 160.142 167.173C160.233 166.974 160.279 166.742 160.279 166.478V166.192C159.902 166.11 159.559 166.068 159.252 166.068C158.818 166.068 158.472 166.149 158.212 166.309C157.952 166.469 157.822 166.718 157.822 167.056ZM165.659 169.143C165.022 169.143 164.511 168.974 164.125 168.636C163.739 168.294 163.547 167.813 163.547 167.193V159.51C163.547 159.337 163.633 159.25 163.807 159.25H164.925C165.098 159.25 165.185 159.337 165.185 159.51V166.998C165.185 167.514 165.408 167.771 165.854 167.771C166.001 167.771 166.149 167.748 166.296 167.7C166.465 167.648 166.576 167.702 166.628 167.862L166.849 168.662C166.905 168.827 166.851 168.939 166.686 169C166.417 169.095 166.075 169.143 165.659 169.143Z" fill="white"/>
</g>
<defs>
<filter id="filter0_di_91_536" x="0.881618" y="0" width="224.237" height="239.237" filterUnits="userSpaceOnUse" color-interpolation-filters="sRGB">
<feFlood flood-opacity="0" result="BackgroundImageFix"/>
<feColorMatrix in="SourceAlpha" type="matrix" values="0 0 0 0 0 0 0 0 0 0 0 0 0 0 0 0 0 0 127 0" result="hardAlpha"/>
<feOffset dy="4.11838"/>
<feGaussianBlur stdDeviation="2.05919"/>
<feComposite in2="hardAlpha" operator="out"/>
<feColorMatrix type="matrix" values="0 0 0 0 0.231667 0 0 0 0 0.231667 0 0 0 0 0.231667 0 0 0 0.3 0"/>
<feBlend mode="normal" in2="BackgroundImageFix" result="effect1_dropShadow_91_536"/>
<feBlend mode="normal" in="SourceGraphic" in2="effect1_dropShadow_91_536" result="shape"/>
<feColorMatrix in="SourceAlpha" type="matrix" values="0 0 0 0 0 0 0 0 0 0 0 0 0 0 0 0 0 0 127 0" result="hardAlpha"/>
<feOffset dy="4.11838"/>
<feGaussianBlur stdDeviation="2.05919"/>
<feComposite in2="hardAlpha" operator="arithmetic" k2="-1" k3="1"/>
<feColorMatrix type="matrix" values="0 0 0 0 1 0 0 0 0 1 0 0 0 0 1 0 0 0 0.2 0"/>
<feBlend mode="normal" in2="shape" result="effect2_innerShadow_91_536"/>
</filter>
<linearGradient id="paint0_linear_91_536" x1="59" y1="24" x2="59" y2="80" gradientUnits="userSpaceOnUse">
<stop stop-color="#DDCBA2"/>
<stop offset="0.894231" stop-color="#AE9B70"/>
</linearGradient>
<linearGradient id="paint1_linear_91_536" x1="60.8699" y1="121.918" x2="60.2641" y2="152.243" gradientUnits="userSpaceOnUse">
<stop stop-color="white"/>
<stop offset="1" stop-color="white" stop-opacity="0.01"/>
</linearGradient>
<clipPath id="clip0_91_536">
<rect width="24" height="24" fill="white" transform="translate(47 40)"/>
</clipPath>
</defs>
</svg>
