<svg width="226" height="240" viewBox="0 0 226 240" fill="none" xmlns="http://www.w3.org/2000/svg">
<g filter="url(#filter0_di_84_361)">
<rect x="5" width="216" height="231" rx="24" fill="#111111"/>
<rect x="31" y="24" width="56" height="56" rx="15.4545" fill="url(#paint0_linear_84_361)"/>
<g clip-path="url(#clip0_84_361)">
<path d="M51.25 63.2289L59.75 49.7289C59.8678 49.5756 60.0192 49.4514 60.1926 49.366C60.366 49.2805 60.5567 49.2361 60.75 49.2361C60.9433 49.2361 61.134 49.2805 61.3074 49.366C61.4808 49.4514 61.6322 49.5756 61.75 49.7289L70.25 63.2289H51.25Z" stroke="black" stroke-width="1.5" stroke-linecap="round" stroke-linejoin="round"/>
<path d="M51.25 63.229H47.75L51.5 56.479L53.675 59.379" stroke="black" stroke-width="1.5" stroke-linecap="round" stroke-linejoin="round"/>
<path d="M55.7109 56.144L58.0479 58.135C58.2394 58.2971 58.4847 58.3813 58.7354 58.3709C58.986 58.3605 59.2235 58.2564 59.4009 58.079L60.0429 57.437C60.2305 57.2496 60.4848 57.1443 60.7499 57.1443C61.0151 57.1443 61.2694 57.2496 61.4569 57.437L62.0989 58.079C62.2763 58.2564 62.5139 58.3605 62.7645 58.3709C63.0151 58.3813 63.2605 58.2971 63.4519 58.135L65.8049 56.169" stroke="black" stroke-width="1.5" stroke-linecap="round" stroke-linejoin="round"/>
<path d="M60.5 49.267V40.729" stroke="black" stroke-width="1.5" stroke-linecap="round" stroke-linejoin="round"/>
<path d="M60.5 40.729H64.25V42.229H68.75L67.25 44.479L68.75 46.729H64.25V45.979H60.5" stroke="black" stroke-width="1.5" stroke-linecap="round" stroke-linejoin="round"/>
</g>
<path opacity="0.1" fill-rule="evenodd" clip-rule="evenodd" d="M30.667 134.946C30.667 134.946 37.1601 133.702 44.5423 136.692C58.5828 142.378 59.3838 131.965 64.5902 126.944C69.3535 122.35 73.2983 125.153 78.6019 130.771C82.5135 134.914 88.2141 141.869 94.1178 140.749C99.5143 139.726 103.34 131.568 110.82 129.494C116.749 127.85 121.567 132.367 128.393 130.771C137.654 128.605 141.791 115.857 148.41 115.857C156.579 115.857 162.331 105.075 169.762 105.075C177.15 105.075 178.153 111.415 186.234 115.857C192.412 119.253 195.385 115.857 195.385 115.857V152.246H30.667V134.946Z" fill="url(#paint1_linear_84_361)"/>
<path d="M31 130.539C31 130.539 37.4647 129.497 44.8148 132.001C58.7941 136.763 59.5916 128.042 64.7753 123.837C69.5178 119.99 73.4455 122.337 78.7259 127.042C82.6204 130.512 88.2962 136.337 94.1741 135.399C99.5472 134.542 103.356 127.71 110.804 125.973C116.706 124.596 121.503 128.379 128.3 127.042C137.521 125.228 141.64 114.552 148.23 114.552C156.363 114.552 162.09 105.5 169.489 105.5C176.844 105.5 177.235 110.832 185.281 114.552C191.433 117.396 195 114.552 195 114.552" stroke="#DDCBA2" stroke-width="1.78425" stroke-linecap="round" stroke-linejoin="round"/>
<path d="M70.6456 169C70.4723 169 70.3856 168.913 70.3856 168.74V159.471C70.3856 159.237 70.4506 159.094 70.5806 159.042C70.7106 158.986 70.858 159.044 71.0226 159.217L76.5866 165.451V159.51C76.5866 159.337 76.6733 159.25 76.8466 159.25H78.0686C78.242 159.25 78.3286 159.337 78.3286 159.51V168.772C78.3286 169.007 78.2593 169.147 78.1206 169.195C77.9863 169.247 77.8325 169.182 77.6591 169L72.1276 162.714V168.74C72.1276 168.913 72.041 169 71.8676 169H70.6456ZM80.444 169C80.2707 169 80.184 168.913 80.184 168.74V162.539C80.184 162.366 80.2707 162.279 80.444 162.279H81.562C81.7353 162.279 81.822 162.366 81.822 162.539V168.74C81.822 168.913 81.7353 169 81.562 169H80.444ZM80.444 161.343L81.471 159.692C81.5447 159.571 81.6487 159.51 81.783 159.51H82.849C82.9573 159.51 83.0267 159.54 83.057 159.601C83.0917 159.657 83.0765 159.731 83.0115 159.822L81.692 161.492C81.6097 161.601 81.5057 161.655 81.38 161.655H80.626C80.522 161.655 80.4527 161.625 80.418 161.564C80.3833 161.503 80.392 161.43 80.444 161.343ZM83.0146 162.584C82.9713 162.493 82.967 162.42 83.0016 162.363C83.0363 162.307 83.1035 162.279 83.2031 162.279H84.3601C84.5075 162.279 84.6093 162.344 84.6656 162.474L86.3556 166.588L88.0001 162.474C88.0521 162.344 88.1518 162.279 88.2991 162.279H89.4691C89.5688 162.279 89.636 162.307 89.6706 162.363C89.7096 162.42 89.7075 162.493 89.6641 162.584L86.7001 169C86.6091 169.199 86.4921 169.299 86.3491 169.299C86.2105 169.303 86.0935 169.206 85.9981 169.007L83.0146 162.584ZM93.7844 169.143C93.3121 169.143 92.8679 169.061 92.4519 168.896C92.0359 168.731 91.6719 168.502 91.3599 168.207C91.0523 167.908 90.8074 167.537 90.6254 167.095C90.4434 166.649 90.3524 166.164 90.3524 165.639C90.3524 164.946 90.4998 164.333 90.7944 163.8C91.0891 163.263 91.4899 162.851 91.9969 162.565C92.5039 162.279 93.0759 162.136 93.7129 162.136C94.6793 162.136 95.4701 162.454 96.0854 163.091C96.7008 163.724 97.0084 164.554 97.0084 165.581C97.0084 165.689 96.9868 165.765 96.9434 165.808C96.9001 165.852 96.8286 165.873 96.7289 165.873H91.9514C91.9731 166.437 92.1638 166.883 92.5234 167.212C92.8831 167.537 93.3186 167.7 93.8299 167.7C94.4973 167.7 95.0866 167.438 95.5979 166.913C95.7149 166.805 95.8276 166.796 95.9359 166.887L96.5599 167.57C96.6856 167.67 96.6834 167.789 96.5534 167.927C96.1808 168.317 95.7539 168.619 95.2729 168.831C94.7919 169.039 94.2958 169.143 93.7844 169.143ZM92.0684 164.723H95.3054C95.2144 164.316 95.0238 164.008 94.7334 163.8C94.4431 163.592 94.1138 163.488 93.7454 163.488C93.3728 163.488 93.0261 163.592 92.7054 163.8C92.3891 164.008 92.1768 164.316 92.0684 164.723ZM100.488 169.143C99.8507 169.143 99.3393 168.974 98.9537 168.636C98.568 168.294 98.3752 167.813 98.3752 167.193V159.51C98.3752 159.337 98.4618 159.25 98.6352 159.25H99.7532C99.9265 159.25 100.013 159.337 100.013 159.51V166.998C100.013 167.514 100.236 167.771 100.683 167.771C100.83 167.771 100.977 167.748 101.125 167.7C101.294 167.648 101.404 167.702 101.456 167.862L101.677 168.662C101.733 168.827 101.679 168.939 101.515 169C101.246 169.095 100.904 169.143 100.488 169.143ZM106.3 169C106.205 169 106.137 168.972 106.098 168.915C106.064 168.859 106.066 168.785 106.105 168.694L110.31 159.25C110.384 159.085 110.479 159.003 110.596 159.003C110.713 159.003 110.809 159.085 110.882 159.25L115.088 168.694C115.127 168.785 115.127 168.859 115.088 168.915C115.053 168.972 114.988 169 114.893 169H113.495C113.348 169 113.248 168.933 113.196 168.798L112.644 167.427H108.549L107.996 168.798C107.944 168.933 107.845 169 107.697 169H106.3ZM109.127 165.997H112.065L110.596 162.35L109.127 165.997ZM120.66 169C120.487 169 120.4 168.913 120.4 168.74V165.009C120.4 164.58 120.296 164.233 120.088 163.969C119.88 163.705 119.575 163.572 119.172 163.572C118.764 163.572 118.435 163.705 118.184 163.969C117.937 164.233 117.813 164.571 117.813 164.983V168.74C117.813 168.913 117.727 169 117.553 169H116.435C116.262 169 116.175 168.913 116.175 168.74V162.539C116.175 162.366 116.262 162.279 116.435 162.279H117.137C117.289 162.279 117.384 162.355 117.423 162.506L117.566 163.046C118.173 162.439 118.858 162.136 119.62 162.136C120.019 162.136 120.387 162.231 120.725 162.422C121.063 162.608 121.33 162.866 121.525 163.195C121.798 162.862 122.14 162.602 122.552 162.415C122.963 162.229 123.386 162.136 123.819 162.136C124.556 162.136 125.145 162.383 125.587 162.877C126.029 163.367 126.25 163.986 126.25 164.736V168.74C126.25 168.913 126.164 169 125.99 169H124.872C124.699 169 124.612 168.913 124.612 168.74V165.009C124.612 164.584 124.506 164.24 124.294 163.975C124.086 163.707 123.787 163.572 123.397 163.572C122.994 163.572 122.667 163.705 122.415 163.969C122.164 164.233 122.038 164.571 122.038 164.983V168.74C122.038 168.913 121.952 169 121.778 169H120.66ZM131.058 169.143C130.586 169.143 130.141 169.061 129.725 168.896C129.309 168.731 128.945 168.502 128.633 168.207C128.326 167.908 128.081 167.537 127.899 167.095C127.717 166.649 127.626 166.164 127.626 165.639C127.626 164.946 127.773 164.333 128.068 163.8C128.363 163.263 128.763 162.851 129.27 162.565C129.777 162.279 130.349 162.136 130.986 162.136C131.953 162.136 132.744 162.454 133.359 163.091C133.974 163.724 134.282 164.554 134.282 165.581C134.282 165.689 134.26 165.765 134.217 165.808C134.174 165.852 134.102 165.873 134.002 165.873H129.225C129.247 166.437 129.437 166.883 129.797 167.212C130.157 167.537 130.592 167.7 131.103 167.7C131.771 167.7 132.36 167.438 132.871 166.913C132.988 166.805 133.101 166.796 133.209 166.887L133.833 167.57C133.959 167.67 133.957 167.789 133.827 167.927C133.454 168.317 133.027 168.619 132.546 168.831C132.065 169.039 131.569 169.143 131.058 169.143ZM129.342 164.723H132.579C132.488 164.316 132.297 164.008 132.007 163.8C131.717 163.592 131.387 163.488 131.019 163.488C130.646 163.488 130.3 163.592 129.979 163.8C129.663 164.008 129.45 164.316 129.342 164.723ZM140.166 169C140.006 169 139.91 168.924 139.88 168.772L139.724 168.174C139.247 168.82 138.558 169.143 137.657 169.143C137.016 169.143 136.478 168.965 136.045 168.61C135.612 168.255 135.395 167.745 135.395 167.082C135.395 166.385 135.644 165.85 136.143 165.477C136.645 165.1 137.291 164.911 138.08 164.911C138.53 164.911 139 164.974 139.49 165.1V164.671C139.49 164.259 139.364 163.96 139.113 163.774C138.866 163.583 138.53 163.488 138.106 163.488C137.607 163.488 137.033 163.607 136.383 163.845C136.214 163.906 136.104 163.856 136.052 163.696L135.785 162.857C135.733 162.697 135.789 162.587 135.954 162.526C136.747 162.266 137.512 162.136 138.249 162.136C138.66 162.136 139.035 162.181 139.373 162.272C139.711 162.363 140.012 162.504 140.277 162.695C140.545 162.881 140.753 163.137 140.901 163.462C141.052 163.787 141.128 164.166 141.128 164.599V168.74C141.128 168.913 141.041 169 140.868 169H140.166ZM137.033 167.056C137.033 167.351 137.128 167.574 137.319 167.726C137.514 167.878 137.757 167.953 138.047 167.953C138.212 167.953 138.372 167.927 138.528 167.875C138.688 167.823 138.842 167.743 138.99 167.635C139.141 167.527 139.263 167.373 139.354 167.173C139.445 166.974 139.49 166.742 139.49 166.478V166.192C139.113 166.11 138.771 166.068 138.463 166.068C138.03 166.068 137.683 166.149 137.423 166.309C137.163 166.469 137.033 166.718 137.033 167.056ZM145.403 171.938C145.308 171.942 145.237 171.919 145.189 171.867C145.146 171.819 145.135 171.752 145.156 171.665L145.247 171.295C145.282 171.147 145.375 171.067 145.527 171.054C146.047 171.024 146.307 170.842 146.307 170.508C146.307 170.231 146.131 170.06 145.78 169.995C145.598 169.96 145.527 169.86 145.566 169.696L145.709 169.124C144.773 169.033 144.004 168.666 143.401 168.025C142.799 167.384 142.498 166.588 142.498 165.639C142.498 164.963 142.656 164.359 142.972 163.826C143.293 163.289 143.729 162.873 144.279 162.578C144.834 162.283 145.451 162.136 146.131 162.136C146.695 162.136 147.219 162.251 147.704 162.48C148.19 162.71 148.595 163.029 148.92 163.436C148.972 163.501 148.991 163.566 148.978 163.631C148.965 163.696 148.924 163.752 148.855 163.8L148.075 164.476C147.949 164.563 147.83 164.541 147.717 164.411C147.535 164.16 147.306 163.962 147.028 163.819C146.755 163.672 146.456 163.598 146.131 163.598C145.555 163.598 145.074 163.791 144.688 164.177C144.307 164.563 144.116 165.05 144.116 165.639C144.116 166.229 144.307 166.716 144.688 167.102C145.074 167.488 145.555 167.68 146.131 167.68C146.452 167.68 146.751 167.609 147.028 167.466C147.306 167.323 147.533 167.126 147.711 166.874C147.828 166.74 147.947 166.716 148.068 166.803L148.855 167.492C149.002 167.596 149.026 167.711 148.926 167.836C148.636 168.213 148.266 168.517 147.815 168.746C147.364 168.976 146.881 169.106 146.365 169.137L146.255 169.572C146.571 169.615 146.831 169.724 147.035 169.897C147.243 170.07 147.347 170.313 147.347 170.625C147.347 171.011 147.184 171.318 146.859 171.548C146.534 171.778 146.049 171.908 145.403 171.938ZM154.816 169C154.656 169 154.561 168.924 154.53 168.772L154.374 168.174C153.898 168.82 153.209 169.143 152.307 169.143C151.666 169.143 151.129 168.965 150.695 168.61C150.262 168.255 150.045 167.745 150.045 167.082C150.045 166.385 150.295 165.85 150.793 165.477C151.296 165.1 151.941 164.911 152.73 164.911C153.181 164.911 153.651 164.974 154.14 165.1V164.671C154.14 164.259 154.015 163.96 153.763 163.774C153.516 163.583 153.181 163.488 152.756 163.488C152.258 163.488 151.683 163.607 151.033 163.845C150.864 163.906 150.754 163.856 150.702 163.696L150.435 162.857C150.383 162.697 150.44 162.587 150.604 162.526C151.397 162.266 152.162 162.136 152.899 162.136C153.311 162.136 153.685 162.181 154.023 162.272C154.361 162.363 154.663 162.504 154.927 162.695C155.196 162.881 155.404 163.137 155.551 163.462C155.703 163.787 155.778 164.166 155.778 164.599V168.74C155.778 168.913 155.692 169 155.518 169H154.816ZM151.683 167.056C151.683 167.351 151.779 167.574 151.969 167.726C152.164 167.878 152.407 167.953 152.697 167.953C152.862 167.953 153.022 167.927 153.178 167.875C153.339 167.823 153.493 167.743 153.64 167.635C153.792 167.527 153.913 167.373 154.004 167.173C154.095 166.974 154.14 166.742 154.14 166.478V166.192C153.763 166.11 153.421 166.068 153.113 166.068C152.68 166.068 152.333 166.149 152.073 166.309C151.813 166.469 151.683 166.718 151.683 167.056Z" fill="white"/>
</g>
<defs>
<filter id="filter0_di_84_361" x="0.881618" y="0" width="224.237" height="239.237" filterUnits="userSpaceOnUse" color-interpolation-filters="sRGB">
<feFlood flood-opacity="0" result="BackgroundImageFix"/>
<feColorMatrix in="SourceAlpha" type="matrix" values="0 0 0 0 0 0 0 0 0 0 0 0 0 0 0 0 0 0 127 0" result="hardAlpha"/>
<feOffset dy="4.11838"/>
<feGaussianBlur stdDeviation="2.05919"/>
<feComposite in2="hardAlpha" operator="out"/>
<feColorMatrix type="matrix" values="0 0 0 0 0.231667 0 0 0 0 0.231667 0 0 0 0 0.231667 0 0 0 0.3 0"/>
<feBlend mode="normal" in2="BackgroundImageFix" result="effect1_dropShadow_84_361"/>
<feBlend mode="normal" in="SourceGraphic" in2="effect1_dropShadow_84_361" result="shape"/>
<feColorMatrix in="SourceAlpha" type="matrix" values="0 0 0 0 0 0 0 0 0 0 0 0 0 0 0 0 0 0 127 0" result="hardAlpha"/>
<feOffset dy="4.11838"/>
<feGaussianBlur stdDeviation="2.05919"/>
<feComposite in2="hardAlpha" operator="arithmetic" k2="-1" k3="1"/>
<feColorMatrix type="matrix" values="0 0 0 0 1 0 0 0 0 1 0 0 0 0 1 0 0 0 0.2 0"/>
<feBlend mode="normal" in2="shape" result="effect2_innerShadow_84_361"/>
</filter>
<linearGradient id="paint0_linear_84_361" x1="59" y1="24" x2="59" y2="80" gradientUnits="userSpaceOnUse">
<stop stop-color="#DDCBA2"/>
<stop offset="0.894231" stop-color="#AE9B70"/>
</linearGradient>
<linearGradient id="paint1_linear_84_361" x1="60.8699" y1="121.918" x2="60.2641" y2="152.243" gradientUnits="userSpaceOnUse">
<stop stop-color="white"/>
<stop offset="1" stop-color="white" stop-opacity="0.01"/>
</linearGradient>
<clipPath id="clip0_84_361">
<rect width="24" height="24" fill="white" transform="translate(47 40)"/>
</clipPath>
</defs>
</svg>
