<svg width="226" height="240" viewBox="0 0 226 240" fill="none" xmlns="http://www.w3.org/2000/svg">
<g filter="url(#filter0_di_91_560)">
<rect x="5" width="216" height="231" rx="24" fill="#111111"/>
<rect x="31" y="24" width="56" height="56" rx="15.4545" fill="url(#paint0_linear_91_560)"/>
<g clip-path="url(#clip0_91_560)">
<path d="M48.5 63.25H69.5" stroke="black" stroke-width="1.5" stroke-linecap="round" stroke-linejoin="round"/>
<path d="M48.5 60.25H69.5" stroke="black" stroke-width="1.5" stroke-linecap="round" stroke-linejoin="round"/>
<path d="M50 49.75V57.25" stroke="black" stroke-width="1.5" stroke-linecap="round" stroke-linejoin="round"/>
<path d="M53 49.75V57.25" stroke="black" stroke-width="1.5" stroke-linecap="round" stroke-linejoin="round"/>
<path d="M57.5 49.75V57.25" stroke="black" stroke-width="1.5" stroke-linecap="round" stroke-linejoin="round"/>
<path d="M60.5 49.75V57.25" stroke="black" stroke-width="1.5" stroke-linecap="round" stroke-linejoin="round"/>
<path d="M65 49.75V57.25" stroke="black" stroke-width="1.5" stroke-linecap="round" stroke-linejoin="round"/>
<path d="M68 49.75V57.25" stroke="black" stroke-width="1.5" stroke-linecap="round" stroke-linejoin="round"/>
<path d="M69.5 46.7499H48.5L58.189 40.9879C58.4309 40.8324 58.7124 40.7498 59 40.7498C59.2876 40.7498 59.5691 40.8324 59.811 40.9879L69.5 46.7499Z" stroke="black" stroke-width="1.5" stroke-linecap="round" stroke-linejoin="round"/>
</g>
<path opacity="0.1" fill-rule="evenodd" clip-rule="evenodd" d="M30.667 134.946C30.667 134.946 37.1601 133.702 44.5423 136.692C58.5828 142.378 59.3838 131.965 64.5902 126.944C69.3535 122.35 73.2983 125.153 78.6019 130.771C82.5135 134.914 88.2141 141.869 94.1178 140.749C99.5143 139.726 103.34 131.568 110.82 129.494C116.749 127.85 121.567 132.367 128.393 130.771C137.654 128.605 141.791 115.857 148.41 115.857C156.579 115.857 162.331 105.075 169.762 105.075C177.15 105.075 178.153 111.415 186.234 115.857C192.412 119.253 195.385 115.857 195.385 115.857V152.246H30.667V134.946Z" fill="url(#paint1_linear_91_560)"/>
<path d="M31 130.539C31 130.539 37.4647 129.497 44.8148 132.001C58.7941 136.763 59.5916 128.042 64.7753 123.837C69.5178 119.99 73.4455 122.337 78.7259 127.042C82.6204 130.512 88.2962 136.337 94.1741 135.399C99.5472 134.542 103.356 127.71 110.804 125.973C116.706 124.596 121.503 128.379 128.3 127.042C137.521 125.228 141.64 114.552 148.23 114.552C156.363 114.552 162.09 105.5 169.489 105.5C176.844 105.5 177.235 110.832 185.281 114.552C191.433 117.396 195 114.552 195 114.552" stroke="#DDCBA2" stroke-width="1.78425" stroke-linecap="round" stroke-linejoin="round"/>
<path d="M65.7994 169.228C64.8158 169.228 63.9339 169.017 63.1539 168.597C62.3739 168.172 61.7608 167.57 61.3144 166.79C60.8681 166.01 60.6449 165.122 60.6449 164.125C60.6449 163.128 60.8681 162.242 61.3144 161.466C61.7608 160.686 62.3739 160.084 63.1539 159.659C63.9383 159.235 64.8201 159.022 65.7994 159.022C66.5751 159.022 67.2901 159.161 67.9444 159.438C68.6031 159.711 69.1643 160.099 69.6279 160.602C69.7449 160.728 69.7341 160.847 69.5954 160.959L68.5684 161.681C68.4428 161.781 68.3214 161.772 68.2044 161.655C67.5631 161.005 66.7614 160.68 65.7994 160.68C64.8288 160.68 64.0249 160.998 63.3879 161.635C62.7509 162.272 62.4324 163.102 62.4324 164.125C62.4324 165.165 62.7509 166.01 63.3879 166.66C64.0293 167.31 64.8331 167.635 65.7994 167.635C66.7354 167.635 67.5198 167.325 68.1524 166.705V165.789H66.0334C65.8601 165.789 65.7734 165.702 65.7734 165.529V164.534C65.7734 164.361 65.8601 164.274 66.0334 164.274H69.5434C69.7168 164.274 69.8034 164.361 69.8034 164.534V167.271C69.8034 167.392 69.7666 167.492 69.6929 167.57C69.2423 168.099 68.6811 168.508 68.0094 168.798C67.3378 169.084 66.6011 169.228 65.7994 169.228ZM74.6307 169.143C73.9547 169.143 73.3415 168.996 72.7912 168.701C72.2452 168.406 71.814 167.992 71.4977 167.459C71.1857 166.922 71.0297 166.315 71.0297 165.639C71.0297 164.963 71.1857 164.359 71.4977 163.826C71.814 163.289 72.2452 162.873 72.7912 162.578C73.3415 162.283 73.9547 162.136 74.6307 162.136C75.311 162.136 75.9264 162.283 76.4767 162.578C77.027 162.873 77.4582 163.289 77.7702 163.826C78.0865 164.359 78.2447 164.963 78.2447 165.639C78.2447 166.315 78.0865 166.922 77.7702 167.459C77.4582 167.992 77.027 168.406 76.4767 168.701C75.9264 168.996 75.311 169.143 74.6307 169.143ZM73.2137 164.177C72.8454 164.558 72.6612 165.046 72.6612 165.639C72.6612 166.233 72.8454 166.723 73.2137 167.108C73.5864 167.49 74.0587 167.68 74.6307 167.68C75.207 167.68 75.6815 167.49 76.0542 167.108C76.4269 166.723 76.6132 166.233 76.6132 165.639C76.6132 165.046 76.4269 164.558 76.0542 164.177C75.6815 163.791 75.207 163.598 74.6307 163.598C74.0587 163.598 73.5864 163.791 73.2137 164.177ZM78.9204 162.584C78.8771 162.493 78.8727 162.42 78.9074 162.363C78.9421 162.307 79.0092 162.279 79.1089 162.279H80.2659C80.4132 162.279 80.5151 162.344 80.5714 162.474L82.2614 166.588L83.9059 162.474C83.9579 162.344 84.0576 162.279 84.2049 162.279H85.3749C85.4746 162.279 85.5417 162.307 85.5764 162.363C85.6154 162.42 85.6132 162.493 85.5699 162.584L82.6059 169C82.5149 169.199 82.3979 169.299 82.2549 169.299C82.1162 169.303 81.9992 169.206 81.9039 169.007L78.9204 162.584ZM89.6902 169.143C89.2179 169.143 88.7737 169.061 88.3577 168.896C87.9417 168.731 87.5777 168.502 87.2657 168.207C86.958 167.908 86.7132 167.537 86.5312 167.095C86.3492 166.649 86.2582 166.164 86.2582 165.639C86.2582 164.946 86.4055 164.333 86.7002 163.8C86.9949 163.263 87.3957 162.851 87.9027 162.565C88.4097 162.279 88.9817 162.136 89.6187 162.136C90.585 162.136 91.3759 162.454 91.9912 163.091C92.6065 163.724 92.9142 164.554 92.9142 165.581C92.9142 165.689 92.8925 165.765 92.8492 165.808C92.8059 165.852 92.7344 165.873 92.6347 165.873H87.8572C87.8789 166.437 88.0695 166.883 88.4292 167.212C88.7889 167.537 89.2244 167.7 89.7357 167.7C90.403 167.7 90.9924 167.438 91.5037 166.913C91.6207 166.805 91.7334 166.796 91.8417 166.887L92.4657 167.57C92.5914 167.67 92.5892 167.789 92.4592 167.927C92.0865 168.317 91.6597 168.619 91.1787 168.831C90.6977 169.039 90.2015 169.143 89.6902 169.143ZM87.9742 164.723H91.2112C91.1202 164.316 90.9295 164.008 90.6392 163.8C90.3489 163.592 90.0195 163.488 89.6512 163.488C89.2785 163.488 88.9319 163.592 88.6112 163.8C88.2949 164.008 88.0825 164.316 87.9742 164.723ZM94.5929 169C94.4196 169 94.3329 168.913 94.3329 168.74L94.3264 162.539C94.3264 162.366 94.4131 162.279 94.5864 162.279H95.2884C95.4401 162.279 95.5354 162.355 95.5744 162.506L95.7564 163.215C95.9817 162.847 96.2526 162.576 96.5689 162.402C96.8896 162.225 97.2319 162.136 97.5959 162.136C97.7779 162.136 97.9794 162.166 98.2004 162.227C98.3564 162.275 98.4127 162.381 98.3694 162.545L98.1159 163.514C98.0769 163.67 97.9707 163.731 97.7974 163.696C97.6111 163.653 97.4421 163.631 97.2904 163.631C96.8657 163.631 96.5386 163.78 96.3089 164.079C96.0836 164.374 95.9709 164.805 95.9709 165.373V168.74C95.9709 168.913 95.8842 169 95.7109 169H94.5929ZM104.276 169C104.103 169 104.016 168.913 104.016 168.74V165.08C104.016 164.634 103.895 164.272 103.652 163.995C103.41 163.718 103.08 163.579 102.664 163.579C102.24 163.579 101.884 163.72 101.598 164.001C101.317 164.279 101.176 164.651 101.176 165.119V168.74C101.176 168.913 101.089 169 100.916 169H99.798C99.6247 169 99.538 168.913 99.538 168.74V162.539C99.538 162.366 99.6247 162.279 99.798 162.279H100.5C100.652 162.279 100.747 162.355 100.786 162.506L100.942 163.091C101.583 162.454 102.324 162.136 103.165 162.136C103.607 162.136 103.993 162.214 104.322 162.37C104.656 162.526 104.916 162.736 105.102 163C105.288 163.265 105.427 163.553 105.518 163.865C105.609 164.173 105.654 164.5 105.654 164.846V168.74C105.654 168.913 105.568 169 105.394 169H104.276ZM111.786 169C111.625 169 111.53 168.924 111.5 168.772L111.344 168.174C110.867 168.82 110.178 169.143 109.277 169.143C108.635 169.143 108.098 168.965 107.665 168.61C107.231 168.255 107.015 167.745 107.015 167.082C107.015 166.385 107.264 165.85 107.762 165.477C108.265 165.1 108.911 164.911 109.699 164.911C110.15 164.911 110.62 164.974 111.11 165.1V164.671C111.11 164.259 110.984 163.96 110.733 163.774C110.486 163.583 110.15 163.488 109.725 163.488C109.227 163.488 108.653 163.607 108.003 163.845C107.834 163.906 107.723 163.856 107.671 163.696L107.405 162.857C107.353 162.697 107.409 162.587 107.574 162.526C108.367 162.266 109.132 162.136 109.868 162.136C110.28 162.136 110.655 162.181 110.993 162.272C111.331 162.363 111.632 162.504 111.896 162.695C112.165 162.881 112.373 163.137 112.52 163.462C112.672 163.787 112.748 164.166 112.748 164.599V168.74C112.748 168.913 112.661 169 112.488 169H111.786ZM108.653 167.056C108.653 167.351 108.748 167.574 108.939 167.726C109.134 167.878 109.376 167.953 109.667 167.953C109.831 167.953 109.992 167.927 110.148 167.875C110.308 167.823 110.462 167.743 110.609 167.635C110.761 167.527 110.882 167.373 110.973 167.173C111.064 166.974 111.11 166.742 111.11 166.478V166.192C110.733 166.11 110.39 166.068 110.083 166.068C109.649 166.068 109.303 166.149 109.043 166.309C108.783 166.469 108.653 166.718 108.653 167.056ZM118.33 169.143C117.844 169.143 117.387 169.05 116.958 168.863C116.533 168.673 116.169 168.404 115.866 168.057L115.678 168.772C115.639 168.924 115.543 169 115.392 169H114.69C114.516 169 114.43 168.913 114.43 168.74L114.443 159.51C114.443 159.337 114.529 159.25 114.703 159.25H115.821C115.994 159.25 116.081 159.337 116.081 159.51L116.074 162.987C116.377 162.714 116.724 162.504 117.114 162.357C117.504 162.21 117.909 162.136 118.33 162.136C118.962 162.136 119.541 162.294 120.065 162.61C120.589 162.922 120.999 163.347 121.294 163.884C121.588 164.417 121.736 165.002 121.736 165.639C121.736 166.276 121.588 166.864 121.294 167.401C120.999 167.934 120.589 168.359 120.065 168.675C119.541 168.987 118.962 169.143 118.33 169.143ZM116.614 164.196C116.215 164.595 116.016 165.076 116.016 165.639C116.016 166.203 116.215 166.684 116.614 167.082C117.012 167.481 117.493 167.68 118.057 167.68C118.62 167.68 119.101 167.481 119.5 167.082C119.898 166.684 120.098 166.203 120.098 165.639C120.098 165.076 119.898 164.595 119.5 164.196C119.101 163.798 118.62 163.598 118.057 163.598C117.493 163.598 117.012 163.798 116.614 164.196ZM123.437 169C123.263 169 123.177 168.913 123.177 168.74V162.539C123.177 162.366 123.263 162.279 123.437 162.279H124.555C124.728 162.279 124.815 162.366 124.815 162.539V168.74C124.815 168.913 124.728 169 124.555 169H123.437ZM122.988 160.628C122.988 160.346 123.083 160.108 123.274 159.913C123.469 159.718 123.707 159.62 123.989 159.62C124.275 159.62 124.513 159.718 124.704 159.913C124.895 160.104 124.99 160.342 124.99 160.628C124.99 160.914 124.895 161.152 124.704 161.343C124.513 161.534 124.275 161.629 123.989 161.629C123.707 161.629 123.469 161.534 123.274 161.343C123.083 161.152 122.988 160.914 122.988 160.628ZM128.627 169.143C127.99 169.143 127.478 168.974 127.093 168.636C126.707 168.294 126.514 167.813 126.514 167.193V159.51C126.514 159.337 126.601 159.25 126.774 159.25H127.892C128.066 159.25 128.152 159.337 128.152 159.51V166.998C128.152 167.514 128.375 167.771 128.822 167.771C128.969 167.771 129.116 167.748 129.264 167.7C129.433 167.648 129.543 167.702 129.595 167.862L129.816 168.662C129.873 168.827 129.818 168.939 129.654 169C129.385 169.095 129.043 169.143 128.627 169.143ZM131.27 169C131.096 169 131.01 168.913 131.01 168.74V162.539C131.01 162.366 131.096 162.279 131.27 162.279H132.388C132.561 162.279 132.648 162.366 132.648 162.539V168.74C132.648 168.913 132.561 169 132.388 169H131.27ZM130.821 160.628C130.821 160.346 130.917 160.108 131.107 159.913C131.302 159.718 131.541 159.62 131.822 159.62C132.108 159.62 132.347 159.718 132.537 159.913C132.728 160.104 132.823 160.342 132.823 160.628C132.823 160.914 132.728 161.152 132.537 161.343C132.347 161.534 132.108 161.629 131.822 161.629C131.541 161.629 131.302 161.534 131.107 161.343C130.917 161.152 130.821 160.914 130.821 160.628ZM137.506 169.143C136.874 169.143 136.295 168.987 135.771 168.675C135.246 168.359 134.837 167.934 134.542 167.401C134.248 166.864 134.1 166.276 134.1 165.639C134.1 165.002 134.248 164.417 134.542 163.884C134.837 163.347 135.246 162.922 135.771 162.61C136.295 162.294 136.874 162.136 137.506 162.136C137.927 162.136 138.332 162.21 138.722 162.357C139.112 162.504 139.458 162.714 139.762 162.987L139.755 159.51C139.755 159.337 139.842 159.25 140.015 159.25H141.133C141.307 159.25 141.393 159.337 141.393 159.51L141.406 168.74C141.406 168.913 141.32 169 141.146 169H140.444C140.293 169 140.197 168.924 140.158 168.772L139.97 168.057C139.666 168.404 139.3 168.673 138.871 168.863C138.447 169.05 137.992 169.143 137.506 169.143ZM136.336 164.196C135.938 164.595 135.738 165.076 135.738 165.639C135.738 166.203 135.938 166.684 136.336 167.082C136.735 167.481 137.216 167.68 137.779 167.68C138.343 167.68 138.824 167.481 139.222 167.082C139.621 166.684 139.82 166.203 139.82 165.639C139.82 165.076 139.621 164.595 139.222 164.196C138.824 163.798 138.343 163.598 137.779 163.598C137.216 163.598 136.735 163.798 136.336 164.196ZM147.612 169C147.452 169 147.356 168.924 147.326 168.772L147.17 168.174C146.693 168.82 146.004 169.143 145.103 169.143C144.462 169.143 143.924 168.965 143.491 168.61C143.058 168.255 142.841 167.745 142.841 167.082C142.841 166.385 143.09 165.85 143.588 165.477C144.091 165.1 144.737 164.911 145.525 164.911C145.976 164.911 146.446 164.974 146.936 165.1V164.671C146.936 164.259 146.81 163.96 146.559 163.774C146.312 163.583 145.976 163.488 145.551 163.488C145.053 163.488 144.479 163.607 143.829 163.845C143.66 163.906 143.549 163.856 143.497 163.696L143.231 162.857C143.179 162.697 143.235 162.587 143.4 162.526C144.193 162.266 144.958 162.136 145.694 162.136C146.106 162.136 146.481 162.181 146.819 162.272C147.157 162.363 147.458 162.504 147.722 162.695C147.991 162.881 148.199 163.137 148.346 163.462C148.498 163.787 148.574 164.166 148.574 164.599V168.74C148.574 168.913 148.487 169 148.314 169H147.612ZM144.479 167.056C144.479 167.351 144.574 167.574 144.765 167.726C144.96 167.878 145.203 167.953 145.493 167.953C145.658 167.953 145.818 167.927 145.974 167.875C146.134 167.823 146.288 167.743 146.435 167.635C146.587 167.527 146.708 167.373 146.799 167.173C146.89 166.974 146.936 166.742 146.936 166.478V166.192C146.559 166.11 146.217 166.068 145.909 166.068C145.476 166.068 145.129 166.149 144.869 166.309C144.609 166.469 144.479 166.718 144.479 167.056ZM153.363 169.143C152.73 169.143 152.152 168.987 151.627 168.675C151.103 168.359 150.693 167.934 150.399 167.401C150.104 166.864 149.957 166.276 149.957 165.639C149.957 165.002 150.104 164.417 150.399 163.884C150.693 163.347 151.103 162.922 151.627 162.61C152.152 162.294 152.73 162.136 153.363 162.136C153.783 162.136 154.188 162.21 154.578 162.357C154.968 162.504 155.315 162.714 155.618 162.987L155.612 159.51C155.612 159.337 155.698 159.25 155.872 159.25H156.99C157.163 159.25 157.25 159.337 157.25 159.51L157.263 168.74C157.263 168.913 157.176 169 157.003 169H156.301C156.149 169 156.054 168.924 156.015 168.772L155.826 168.057C155.523 168.404 155.157 168.673 154.728 168.863C154.303 169.05 153.848 169.143 153.363 169.143ZM152.193 164.196C151.794 164.595 151.595 165.076 151.595 165.639C151.595 166.203 151.794 166.684 152.193 167.082C152.591 167.481 153.072 167.68 153.636 167.68C154.199 167.68 154.68 167.481 155.079 167.082C155.477 166.684 155.677 166.203 155.677 165.639C155.677 165.076 155.477 164.595 155.079 164.196C154.68 163.798 154.199 163.598 153.636 163.598C153.072 163.598 152.591 163.798 152.193 164.196ZM162.142 169.143C161.67 169.143 161.226 169.061 160.81 168.896C160.394 168.731 160.03 168.502 159.718 168.207C159.41 167.908 159.165 167.537 158.983 167.095C158.801 166.649 158.71 166.164 158.71 165.639C158.71 164.946 158.858 164.333 159.152 163.8C159.447 163.263 159.848 162.851 160.355 162.565C160.862 162.279 161.434 162.136 162.071 162.136C163.037 162.136 163.828 162.454 164.443 163.091C165.059 163.724 165.366 164.554 165.366 165.581C165.366 165.689 165.345 165.765 165.301 165.808C165.258 165.852 165.187 165.873 165.087 165.873H160.309C160.331 166.437 160.522 166.883 160.881 167.212C161.241 167.537 161.677 167.7 162.188 167.7C162.855 167.7 163.445 167.438 163.956 166.913C164.073 166.805 164.186 166.796 164.294 166.887L164.918 167.57C165.044 167.67 165.041 167.789 164.911 167.927C164.539 168.317 164.112 168.619 163.631 168.831C163.15 169.039 162.654 169.143 162.142 169.143ZM160.426 164.723H163.663C163.572 164.316 163.382 164.008 163.091 163.8C162.801 163.592 162.472 163.488 162.103 163.488C161.731 163.488 161.384 163.592 161.063 163.8C160.747 164.008 160.535 164.316 160.426 164.723Z" fill="white"/>
</g>
<defs>
<filter id="filter0_di_91_560" x="0.881618" y="0" width="224.237" height="239.237" filterUnits="userSpaceOnUse" color-interpolation-filters="sRGB">
<feFlood flood-opacity="0" result="BackgroundImageFix"/>
<feColorMatrix in="SourceAlpha" type="matrix" values="0 0 0 0 0 0 0 0 0 0 0 0 0 0 0 0 0 0 127 0" result="hardAlpha"/>
<feOffset dy="4.11838"/>
<feGaussianBlur stdDeviation="2.05919"/>
<feComposite in2="hardAlpha" operator="out"/>
<feColorMatrix type="matrix" values="0 0 0 0 0.231667 0 0 0 0 0.231667 0 0 0 0 0.231667 0 0 0 0.3 0"/>
<feBlend mode="normal" in2="BackgroundImageFix" result="effect1_dropShadow_91_560"/>
<feBlend mode="normal" in="SourceGraphic" in2="effect1_dropShadow_91_560" result="shape"/>
<feColorMatrix in="SourceAlpha" type="matrix" values="0 0 0 0 0 0 0 0 0 0 0 0 0 0 0 0 0 0 127 0" result="hardAlpha"/>
<feOffset dy="4.11838"/>
<feGaussianBlur stdDeviation="2.05919"/>
<feComposite in2="hardAlpha" operator="arithmetic" k2="-1" k3="1"/>
<feColorMatrix type="matrix" values="0 0 0 0 1 0 0 0 0 1 0 0 0 0 1 0 0 0 0.2 0"/>
<feBlend mode="normal" in2="shape" result="effect2_innerShadow_91_560"/>
</filter>
<linearGradient id="paint0_linear_91_560" x1="59" y1="24" x2="59" y2="80" gradientUnits="userSpaceOnUse">
<stop stop-color="#DDCBA2"/>
<stop offset="0.894231" stop-color="#AE9B70"/>
</linearGradient>
<linearGradient id="paint1_linear_91_560" x1="60.8699" y1="121.918" x2="60.2641" y2="152.243" gradientUnits="userSpaceOnUse">
<stop stop-color="white"/>
<stop offset="1" stop-color="white" stop-opacity="0.01"/>
</linearGradient>
<clipPath id="clip0_91_560">
<rect width="24" height="24" fill="white" transform="translate(47 40)"/>
</clipPath>
</defs>
</svg>
