<svg width="239" height="256" viewBox="0 0 239 256" fill="none" xmlns="http://www.w3.org/2000/svg">
<path d="M81 0H126.5H170C170 0 160 5.375 160 9.5C160 13.625 170 18 170 18H126.5H81C81 18 91 14.25 91 9.375C91 4.5 81 0 81 0Z" fill="#191919"/>
<path d="M0.454102 176.091L0.222005 130.591L0.000109748 87.0917C0.000109748 87.0917 5.42605 97.0642 9.551 97.0431C13.6759 97.0221 17.9999 86.9999 17.9999 86.9999L18.2218 130.499L18.4539 175.999C18.4539 175.999 14.6529 166.018 9.77797 166.043C4.90303 166.068 0.454102 176.091 0.454102 176.091Z" fill="#191919"/>
<g filter="url(#filter0_di_91_587)">
<rect x="18" y="16" width="216" height="231" rx="24" fill="#111111"/>
<rect x="44" y="40" width="56" height="56" rx="15.4545" fill="url(#paint0_linear_91_587)"/>
<g clip-path="url(#clip0_91_587)">
<path d="M63.1787 71.362L64.2137 60.49H68.9637L69.8357 69.639" stroke="black" stroke-width="1.5" stroke-linecap="round" stroke-linejoin="round"/>
<path d="M60.75 79.24H83.25V67.6C83.25 67.3058 83.1332 67.0238 82.9252 66.8158C82.7172 66.6078 82.4351 66.491 82.141 66.491C82.0472 66.4909 81.9537 66.503 81.863 66.527L61.5 71.8C61.2854 71.8556 61.0954 71.981 60.9598 72.1564C60.8242 72.3318 60.7508 72.5473 60.751 72.769L60.75 79.24Z" stroke="black" stroke-width="1.5" stroke-linecap="round" stroke-linejoin="round"/>
<path d="M68.0049 56.879C69.037 56.8606 70.0602 57.0728 70.9999 57.5C78.4289 60.672 81.4999 56.76 81.4999 56.76" stroke="black" stroke-width="1.5" stroke-linecap="round" stroke-linejoin="round"/>
<path d="M79.75 79.241H74.75V74.741C74.75 74.4758 74.8554 74.2214 75.0429 74.0339C75.2304 73.8463 75.4848 73.741 75.75 73.741H78.75C79.0152 73.741 79.2696 73.8463 79.4571 74.0339C79.6446 74.2214 79.75 74.4758 79.75 74.741V79.241Z" stroke="black" stroke-width="1.5" stroke-linecap="round" stroke-linejoin="round"/>
<path d="M71.25 75.24H69.75" stroke="black" stroke-width="1.5" stroke-linecap="round" stroke-linejoin="round"/>
<path d="M66.25 75.24H64.75" stroke="black" stroke-width="1.5" stroke-linecap="round" stroke-linejoin="round"/>
</g>
<path opacity="0.1" fill-rule="evenodd" clip-rule="evenodd" d="M43.667 150.946C43.667 150.946 50.1601 149.702 57.5423 152.692C71.5828 158.378 72.3838 147.965 77.5902 142.944C82.3535 138.35 86.2983 141.153 91.6019 146.771C95.5135 150.914 101.214 157.869 107.118 156.749C112.514 155.726 116.34 147.568 123.82 145.494C129.749 143.85 134.567 148.367 141.393 146.771C150.654 144.605 154.791 131.857 161.41 131.857C169.579 131.857 175.331 121.075 182.762 121.075C190.15 121.075 191.153 127.415 199.234 131.857C205.412 135.253 208.385 131.857 208.385 131.857V168.246H43.667V150.946Z" fill="url(#paint1_linear_91_587)"/>
<path d="M44 146.539C44 146.539 50.4647 145.497 57.8148 148.001C71.7941 152.763 72.5916 144.042 77.7753 139.837C82.5178 135.99 86.4455 138.337 91.7259 143.042C95.6204 146.512 101.296 152.337 107.174 151.399C112.547 150.542 116.356 143.71 123.804 141.973C129.706 140.596 134.503 144.379 141.3 143.042C150.521 141.228 154.64 130.552 161.23 130.552C169.363 130.552 175.09 121.5 182.489 121.5C189.844 121.5 190.235 126.832 198.281 130.552C204.433 133.396 208 130.552 208 130.552" stroke="#DDCBA2" stroke-width="1.78425" stroke-linecap="round" stroke-linejoin="round"/>
<path d="M74.6566 185C74.4833 185 74.3966 184.913 74.3966 184.74V176.829H72.2841C72.1108 176.829 72.0241 176.743 72.0241 176.569V175.51C72.0241 175.337 72.1108 175.25 72.2841 175.25H78.3031C78.4764 175.25 78.5631 175.337 78.5631 175.51V176.569C78.5631 176.743 78.4764 176.829 78.3031 176.829H76.1906V184.74C76.1906 184.913 76.1039 185 75.9306 185H74.6566ZM81.8318 185.143C81.3595 185.143 80.9153 185.061 80.4993 184.896C80.0833 184.731 79.7193 184.502 79.4073 184.207C79.0996 183.908 78.8548 183.537 78.6728 183.095C78.4908 182.649 78.3998 182.164 78.3998 181.639C78.3998 180.946 78.5471 180.333 78.8418 179.8C79.1365 179.263 79.5373 178.851 80.0443 178.565C80.5513 178.279 81.1233 178.136 81.7603 178.136C82.7266 178.136 83.5175 178.454 84.1328 179.091C84.7481 179.724 85.0558 180.554 85.0558 181.581C85.0558 181.689 85.0341 181.765 84.9908 181.808C84.9475 181.852 84.876 181.873 84.7763 181.873H79.9988C80.0205 182.437 80.2111 182.883 80.5708 183.212C80.9305 183.537 81.366 183.7 81.8773 183.7C82.5446 183.7 83.134 183.438 83.6453 182.913C83.7623 182.805 83.875 182.796 83.9833 182.887L84.6073 183.57C84.733 183.67 84.7308 183.789 84.6008 183.927C84.2281 184.317 83.8013 184.619 83.3203 184.831C82.8393 185.039 82.3431 185.143 81.8318 185.143ZM80.1158 180.723H83.3528C83.2618 180.316 83.0711 180.008 82.7808 179.8C82.4905 179.592 82.1611 179.488 81.7928 179.488C81.4201 179.488 81.0735 179.592 80.7528 179.8C80.4365 180.008 80.2241 180.316 80.1158 180.723ZM88.457 185.143C87.8243 185.143 87.1483 185.037 86.429 184.824C86.2513 184.772 86.195 184.664 86.26 184.499L86.559 183.635C86.6153 183.483 86.7258 183.438 86.8905 183.498C87.4712 183.719 87.9998 183.83 88.4765 183.83C89.0572 183.83 89.3475 183.62 89.3475 183.199C89.3475 183.121 89.3215 183.046 89.2695 182.972C89.2175 182.898 89.133 182.825 89.016 182.751C88.899 182.677 88.7863 182.612 88.678 182.556C88.574 182.5 88.4267 182.426 88.236 182.335C88.0497 182.244 87.9023 182.168 87.794 182.107C87.5643 181.982 87.3715 181.867 87.2155 181.763C87.0595 181.659 86.8992 181.529 86.7345 181.373C86.5698 181.213 86.4442 181.035 86.3575 180.84C86.2752 180.641 86.234 180.422 86.234 180.183C86.234 179.841 86.299 179.538 86.429 179.273C86.559 179.005 86.7367 178.79 86.962 178.63C87.1873 178.465 87.4408 178.342 87.7225 178.259C88.0042 178.177 88.3053 178.136 88.626 178.136C89.1893 178.136 89.7938 178.238 90.4395 178.441C90.6085 178.489 90.6627 178.597 90.602 178.766L90.3355 179.618C90.2835 179.783 90.173 179.835 90.004 179.774C89.4623 179.579 89.003 179.481 88.626 179.481C88.392 179.481 88.2057 179.527 88.067 179.618C87.9283 179.705 87.859 179.832 87.859 180.001C87.859 180.062 87.872 180.121 87.898 180.177C87.924 180.233 87.9652 180.29 88.0215 180.346C88.0778 180.398 88.1342 180.446 88.1905 180.489C88.2512 180.528 88.3313 180.573 88.431 180.625C88.5307 180.677 88.6195 180.723 88.6975 180.762C88.7755 180.797 88.8773 180.844 89.003 180.905C89.133 180.961 89.2392 181.009 89.3215 181.048C89.5642 181.165 89.77 181.278 89.939 181.386C90.1123 181.49 90.2878 181.622 90.4655 181.782C90.6432 181.943 90.7775 182.131 90.8685 182.348C90.9638 182.565 91.0115 182.803 91.0115 183.063C91.0115 183.436 90.94 183.763 90.797 184.045C90.654 184.322 90.459 184.538 90.212 184.694C89.965 184.846 89.6942 184.959 89.3995 185.033C89.1092 185.106 88.795 185.143 88.457 185.143ZM95.7176 185.143C95.0416 185.143 94.4285 184.996 93.8781 184.701C93.3321 184.406 92.901 183.992 92.5846 183.459C92.2726 182.922 92.1166 182.315 92.1166 181.639C92.1166 180.963 92.2726 180.359 92.5846 179.826C92.901 179.289 93.3321 178.873 93.8781 178.578C94.4285 178.283 95.0416 178.136 95.7176 178.136C96.398 178.136 97.0133 178.283 97.5636 178.578C98.114 178.873 98.5451 179.289 98.8571 179.826C99.1735 180.359 99.3316 180.963 99.3316 181.639C99.3316 182.315 99.1735 182.922 98.8571 183.459C98.5451 183.992 98.114 184.406 97.5636 184.701C97.0133 184.996 96.398 185.143 95.7176 185.143ZM94.3006 180.177C93.9323 180.558 93.7481 181.046 93.7481 181.639C93.7481 182.233 93.9323 182.723 94.3006 183.108C94.6733 183.49 95.1456 183.68 95.7176 183.68C96.294 183.68 96.7685 183.49 97.1411 183.108C97.5138 182.723 97.7001 182.233 97.7001 181.639C97.7001 181.046 97.5138 180.558 97.1411 180.177C96.7685 179.791 96.294 179.598 95.7176 179.598C95.1456 179.598 94.6733 179.791 94.3006 180.177ZM103.616 185.143C102.737 185.143 102.024 184.889 101.478 184.382C100.936 183.875 100.665 183.173 100.665 182.276V178.539C100.665 178.366 100.752 178.279 100.925 178.279H102.043C102.217 178.279 102.303 178.366 102.303 178.539V182.224C102.303 182.675 102.42 183.026 102.654 183.277C102.888 183.524 103.209 183.648 103.616 183.648C104.028 183.648 104.351 183.52 104.585 183.264C104.819 183.009 104.936 182.662 104.936 182.224V178.539C104.936 178.366 105.023 178.279 105.196 178.279H106.314C106.487 178.279 106.574 178.366 106.574 178.539V182.276C106.574 183.173 106.301 183.875 105.755 184.382C105.213 184.889 104.5 185.143 103.616 185.143ZM108.482 185C108.308 185 108.222 184.913 108.222 184.74L108.215 178.539C108.215 178.366 108.302 178.279 108.475 178.279H109.177C109.329 178.279 109.424 178.355 109.463 178.506L109.645 179.215C109.87 178.847 110.141 178.576 110.458 178.402C110.778 178.225 111.121 178.136 111.485 178.136C111.667 178.136 111.868 178.166 112.089 178.227C112.245 178.275 112.301 178.381 112.258 178.545L112.005 179.514C111.966 179.67 111.859 179.731 111.686 179.696C111.5 179.653 111.331 179.631 111.179 179.631C110.754 179.631 110.427 179.78 110.198 180.079C109.972 180.374 109.86 180.805 109.86 181.373V184.74C109.86 184.913 109.773 185 109.6 185H108.482ZM116.474 185.143C115.798 185.143 115.185 184.996 114.635 184.701C114.089 184.406 113.658 183.992 113.341 183.459C113.029 182.922 112.873 182.315 112.873 181.639C112.873 180.963 113.029 180.359 113.341 179.826C113.658 179.289 114.089 178.873 114.635 178.578C115.185 178.283 115.798 178.136 116.474 178.136C117.155 178.136 117.77 178.283 118.32 178.578C118.871 178.873 119.302 179.289 119.614 179.826C119.93 180.359 120.088 180.963 120.088 181.639C120.088 182.315 119.93 182.922 119.614 183.459C119.302 183.992 118.871 184.406 118.32 184.701C117.77 184.996 117.155 185.143 116.474 185.143ZM115.057 180.177C114.689 180.558 114.505 181.046 114.505 181.639C114.505 182.233 114.689 182.723 115.057 183.108C115.43 183.49 115.902 183.68 116.474 183.68C117.051 183.68 117.525 183.49 117.898 183.108C118.271 182.723 118.457 182.233 118.457 181.639C118.457 181.046 118.271 180.558 117.898 180.177C117.525 179.791 117.051 179.598 116.474 179.598C115.902 179.598 115.43 179.791 115.057 180.177ZM125.788 185C125.614 185 125.528 184.913 125.528 184.74V175.471C125.528 175.237 125.593 175.094 125.723 175.042C125.853 174.986 126 175.044 126.165 175.217L131.729 181.451V175.51C131.729 175.337 131.815 175.25 131.989 175.25H133.211C133.384 175.25 133.471 175.337 133.471 175.51V184.772C133.471 185.007 133.401 185.147 133.263 185.195C133.128 185.247 132.975 185.182 132.801 185L127.27 178.714V184.74C127.27 184.913 127.183 185 127.01 185H125.788ZM139.792 185C139.631 185 139.536 184.924 139.506 184.772L139.35 184.174C138.873 184.82 138.184 185.143 137.283 185.143C136.641 185.143 136.104 184.965 135.671 184.61C135.237 184.255 135.021 183.745 135.021 183.082C135.021 182.385 135.27 181.85 135.768 181.477C136.271 181.1 136.916 180.911 137.705 180.911C138.156 180.911 138.626 180.974 139.116 181.1V180.671C139.116 180.259 138.99 179.96 138.739 179.774C138.492 179.583 138.156 179.488 137.731 179.488C137.233 179.488 136.659 179.607 136.009 179.845C135.84 179.906 135.729 179.856 135.677 179.696L135.411 178.857C135.359 178.697 135.415 178.587 135.58 178.526C136.373 178.266 137.137 178.136 137.874 178.136C138.286 178.136 138.661 178.181 138.999 178.272C139.337 178.363 139.638 178.504 139.902 178.695C140.171 178.881 140.379 179.137 140.526 179.462C140.678 179.787 140.754 180.166 140.754 180.599V184.74C140.754 184.913 140.667 185 140.494 185H139.792ZM136.659 183.056C136.659 183.351 136.754 183.574 136.945 183.726C137.14 183.878 137.382 183.953 137.673 183.953C137.837 183.953 137.998 183.927 138.154 183.875C138.314 183.823 138.468 183.743 138.615 183.635C138.767 183.527 138.888 183.373 138.979 183.173C139.07 182.974 139.116 182.742 139.116 182.478V182.192C138.739 182.11 138.396 182.068 138.089 182.068C137.655 182.068 137.309 182.149 137.049 182.309C136.789 182.469 136.659 182.718 136.659 183.056ZM145.757 185.143C145.077 185.143 144.459 184.996 143.904 184.701C143.354 184.406 142.919 183.992 142.598 183.459C142.282 182.922 142.123 182.315 142.123 181.639C142.123 180.963 142.282 180.359 142.598 179.826C142.919 179.289 143.354 178.873 143.904 178.578C144.459 178.283 145.077 178.136 145.757 178.136C146.32 178.136 146.845 178.251 147.33 178.48C147.815 178.71 148.22 179.029 148.545 179.436C148.597 179.501 148.617 179.566 148.604 179.631C148.591 179.696 148.55 179.752 148.48 179.8L147.7 180.476C147.575 180.563 147.456 180.541 147.343 180.411C147.161 180.16 146.931 179.962 146.654 179.819C146.381 179.672 146.082 179.598 145.757 179.598C145.181 179.598 144.7 179.791 144.314 180.177C143.933 180.563 143.742 181.05 143.742 181.639C143.742 182.229 143.933 182.716 144.314 183.102C144.7 183.488 145.181 183.68 145.757 183.68C146.078 183.68 146.377 183.609 146.654 183.466C146.931 183.323 147.159 183.126 147.336 182.874C147.453 182.74 147.573 182.716 147.694 182.803L148.48 183.492C148.628 183.596 148.652 183.711 148.552 183.836C148.24 184.239 147.835 184.558 147.336 184.792C146.842 185.026 146.316 185.143 145.757 185.143ZM150.236 185C150.063 185 149.976 184.913 149.976 184.74V178.539C149.976 178.366 150.063 178.279 150.236 178.279H151.354C151.528 178.279 151.614 178.366 151.614 178.539V184.74C151.614 184.913 151.528 185 151.354 185H150.236ZM149.788 176.628C149.788 176.346 149.883 176.108 150.074 175.913C150.269 175.718 150.507 175.62 150.789 175.62C151.075 175.62 151.313 175.718 151.504 175.913C151.695 176.104 151.79 176.342 151.79 176.628C151.79 176.914 151.695 177.152 151.504 177.343C151.313 177.534 151.075 177.629 150.789 177.629C150.507 177.629 150.269 177.534 150.074 177.343C149.883 177.152 149.788 176.914 149.788 176.628ZM156.655 185.143C155.979 185.143 155.366 184.996 154.816 184.701C154.27 184.406 153.838 183.992 153.522 183.459C153.21 182.922 153.054 182.315 153.054 181.639C153.054 180.963 153.21 180.359 153.522 179.826C153.838 179.289 154.27 178.873 154.816 178.578C155.366 178.283 155.979 178.136 156.655 178.136C157.335 178.136 157.951 178.283 158.501 178.578C159.051 178.873 159.483 179.289 159.795 179.826C160.111 180.359 160.269 180.963 160.269 181.639C160.269 182.315 160.111 182.922 159.795 183.459C159.483 183.992 159.051 184.406 158.501 184.701C157.951 184.996 157.335 185.143 156.655 185.143ZM155.238 180.177C154.87 180.558 154.686 181.046 154.686 181.639C154.686 182.233 154.87 182.723 155.238 183.108C155.611 183.49 156.083 183.68 156.655 183.68C157.231 183.68 157.706 183.49 158.079 183.108C158.451 182.723 158.638 182.233 158.638 181.639C158.638 181.046 158.451 180.558 158.079 180.177C157.706 179.791 157.231 179.598 156.655 179.598C156.083 179.598 155.611 179.791 155.238 180.177ZM166.445 185C166.272 185 166.185 184.913 166.185 184.74V181.08C166.185 180.634 166.064 180.272 165.821 179.995C165.579 179.718 165.249 179.579 164.833 179.579C164.409 179.579 164.053 179.72 163.767 180.001C163.486 180.279 163.345 180.651 163.345 181.119V184.74C163.345 184.913 163.258 185 163.085 185H161.967C161.794 185 161.707 184.913 161.707 184.74V178.539C161.707 178.366 161.794 178.279 161.967 178.279H162.669C162.821 178.279 162.916 178.355 162.955 178.506L163.111 179.091C163.752 178.454 164.493 178.136 165.334 178.136C165.776 178.136 166.162 178.214 166.491 178.37C166.825 178.526 167.085 178.736 167.271 179C167.457 179.265 167.596 179.553 167.687 179.865C167.778 180.173 167.823 180.5 167.823 180.846V184.74C167.823 184.913 167.737 185 167.563 185H166.445ZM173.955 185C173.794 185 173.699 184.924 173.669 184.772L173.513 184.174C173.036 184.82 172.347 185.143 171.446 185.143C170.804 185.143 170.267 184.965 169.834 184.61C169.4 184.255 169.184 183.745 169.184 183.082C169.184 182.385 169.433 181.85 169.931 181.477C170.434 181.1 171.079 180.911 171.868 180.911C172.319 180.911 172.789 180.974 173.279 181.1V180.671C173.279 180.259 173.153 179.96 172.902 179.774C172.655 179.583 172.319 179.488 171.894 179.488C171.396 179.488 170.822 179.607 170.172 179.845C170.003 179.906 169.892 179.856 169.84 179.696L169.574 178.857C169.522 178.697 169.578 178.587 169.743 178.526C170.536 178.266 171.3 178.136 172.037 178.136C172.449 178.136 172.824 178.181 173.162 178.272C173.5 178.363 173.801 178.504 174.065 178.695C174.334 178.881 174.542 179.137 174.689 179.462C174.841 179.787 174.917 180.166 174.917 180.599V184.74C174.917 184.913 174.83 185 174.657 185H173.955ZM170.822 183.056C170.822 183.351 170.917 183.574 171.108 183.726C171.303 183.878 171.545 183.953 171.836 183.953C172 183.953 172.161 183.927 172.317 183.875C172.477 183.823 172.631 183.743 172.778 183.635C172.93 183.527 173.051 183.373 173.142 183.173C173.233 182.974 173.279 182.742 173.279 182.478V182.192C172.902 182.11 172.559 182.068 172.252 182.068C171.818 182.068 171.472 182.149 171.212 182.309C170.952 182.469 170.822 182.718 170.822 183.056ZM178.659 185.143C178.022 185.143 177.511 184.974 177.125 184.636C176.739 184.294 176.547 183.813 176.547 183.193V175.51C176.547 175.337 176.633 175.25 176.807 175.25H177.925C178.098 175.25 178.185 175.337 178.185 175.51V182.998C178.185 183.514 178.408 183.771 178.854 183.771C179.001 183.771 179.149 183.748 179.296 183.7C179.465 183.648 179.576 183.702 179.628 183.862L179.849 184.662C179.905 184.827 179.851 184.939 179.686 185C179.417 185.095 179.075 185.143 178.659 185.143Z" fill="white"/>
</g>
<defs>
<filter id="filter0_di_91_587" x="13.8816" y="16" width="224.237" height="239.237" filterUnits="userSpaceOnUse" color-interpolation-filters="sRGB">
<feFlood flood-opacity="0" result="BackgroundImageFix"/>
<feColorMatrix in="SourceAlpha" type="matrix" values="0 0 0 0 0 0 0 0 0 0 0 0 0 0 0 0 0 0 127 0" result="hardAlpha"/>
<feOffset dy="4.11838"/>
<feGaussianBlur stdDeviation="2.05919"/>
<feComposite in2="hardAlpha" operator="out"/>
<feColorMatrix type="matrix" values="0 0 0 0 0.231667 0 0 0 0 0.231667 0 0 0 0 0.231667 0 0 0 0.3 0"/>
<feBlend mode="normal" in2="BackgroundImageFix" result="effect1_dropShadow_91_587"/>
<feBlend mode="normal" in="SourceGraphic" in2="effect1_dropShadow_91_587" result="shape"/>
<feColorMatrix in="SourceAlpha" type="matrix" values="0 0 0 0 0 0 0 0 0 0 0 0 0 0 0 0 0 0 127 0" result="hardAlpha"/>
<feOffset dy="4.11838"/>
<feGaussianBlur stdDeviation="2.05919"/>
<feComposite in2="hardAlpha" operator="arithmetic" k2="-1" k3="1"/>
<feColorMatrix type="matrix" values="0 0 0 0 1 0 0 0 0 1 0 0 0 0 1 0 0 0 0.2 0"/>
<feBlend mode="normal" in2="shape" result="effect2_innerShadow_91_587"/>
</filter>
<linearGradient id="paint0_linear_91_587" x1="72" y1="40" x2="72" y2="96" gradientUnits="userSpaceOnUse">
<stop stop-color="#DDCBA2"/>
<stop offset="0.894231" stop-color="#AE9B70"/>
</linearGradient>
<linearGradient id="paint1_linear_91_587" x1="73.8699" y1="137.918" x2="73.2641" y2="168.243" gradientUnits="userSpaceOnUse">
<stop stop-color="white"/>
<stop offset="1" stop-color="white" stop-opacity="0.01"/>
</linearGradient>
<clipPath id="clip0_91_587">
<rect width="24" height="24" fill="white" transform="translate(60 56)"/>
</clipPath>
</defs>
</svg>
