<svg width="81" height="351" viewBox="0 0 81 351" fill="none" xmlns="http://www.w3.org/2000/svg">
<path d="M21.5 28.5L30 23.5L33.5 16.5L30 8.5L40.5 1L50 21.5V39L47.5 50L59 63V77L56 81L65.5 92.5L69.5 103L70.5 114.5L80 123.5L78 130.5L62.5 136L59 141L62.5 147L59 151.5L57 156.5L62.5 164L59 174L62.5 176V184L57 185.5L53.5 189.5L48 202.5L41.5 208.5L40.5 217L35 225.5V234L38.5 243L36.5 246.5L32 247.5V258.5L27 260.5V267.5V273.5L32.5 278L28 279.5L32 287.5L34.5 295V302.5L38.5 304L36.5 323L32.5 329.5L28.5 342.5V350L1 345.5L3.5 335.5V328.5L6 323L9.5 316V304L11 301L15 295V289L13 280.5V273L9.5 260.5L11 254.5L16.5 247.5L20 244.5L15 236V230.5L13 223.5L15 217L20 211.5V202.5L22.5 195.5L23.5 193.5V185.5V174V169.5V166.5L28 162V158L26 153V150V141V136L28 130.5L26 126.5V122L30 119L32 103L33.5 92.5L30 81V73.5V64.5V56V47L21.5 30V28.5Z" fill="#480000"/>
<path d="M70.5 114.5L69.5 103L65.5 92.5L56 81L59 77V63L47.5 50L50 39V21.5L40.5 1L30 8.5L33.5 16.5L30 23.5L21.5 28.5V30L30 47V56V64.5V73.5V81L33.5 92.5L32 103L30 119M70.5 114.5L30 119M70.5 114.5L80 123.5L78 130.5L62.5 136L59 141L62.5 147L59 151.5L57 156.5L62.5 164L59 174L62.5 176V184L57 185.5L53.5 189.5L48 202.5L41.5 208.5L40.5 217L35 225.5V234L38.5 243L36.5 246.5L32 247.5M30 119L26 122V126.5L28 130.5L26 136V141V150V153L28 158V162L23.5 166.5V169.5V174C23.5 177.167 23.5 183.9 23.5 185.5C23.5 187.1 23.5 191.5 23.5 193.5L22.5 195.5L20 202.5V211.5L15 217L13 223.5L15 230.5V236L20 244.5M20 244.5L32 247.5M20 244.5L16.5 247.5L11 254.5L9.5 260.5L13 273V280.5L15 289V295L11 301L9.5 304V316L6 323L3.5 328.5V335.5L1 345.5L28.5 350V342.5L32.5 329.5L36.5 323L38.5 304L34.5 302.5V295L32 287.5L28 279.5L32.5 278L27 273.5V267.5V260.5L32 258.5V247.5" stroke="white"/>
</svg>
