<svg width="56" height="54" viewBox="0 0 56 54" fill="none" xmlns="http://www.w3.org/2000/svg">
<rect width="56" height="54" rx="18" fill="#272727"/>
<path d="M32.3125 17.656V36.3435C32.3125 37.0114 32.3125 37.3454 32.3677 37.6231C32.5946 38.7636 33.4855 39.6556 34.626 39.8825C34.9037 39.9377 35.2377 39.9377 35.9056 39.9377C36.5735 39.9377 36.9088 39.9377 37.1865 39.8825C38.327 39.6556 39.2184 38.7636 39.4453 37.6231C39.5 37.3479 39.5 37.0173 39.5 36.3611V17.6384C39.5 16.9822 39.5 16.651 39.4453 16.3757C39.2184 15.2352 38.3264 14.3444 37.1859 14.1175C36.9082 14.0623 36.5742 14.0623 35.9062 14.0623C35.2383 14.0623 34.9037 14.0623 34.626 14.1175C33.4855 14.3444 32.5946 15.2352 32.3677 16.3757C32.3125 16.6535 32.3125 16.9881 32.3125 17.656Z" stroke="#DDCBA2" stroke-width="3" stroke-linecap="round" stroke-linejoin="round"/>
<path d="M16.5 17.656V36.3435C16.5 37.0114 16.5 37.3454 16.5552 37.6231C16.7821 38.7636 17.673 39.6556 18.8135 39.8825C19.0912 39.9377 19.4252 39.9377 20.0931 39.9377C20.761 39.9377 21.0963 39.9377 21.374 39.8825C22.5145 39.6556 23.4059 38.7636 23.6328 37.6231C23.6875 37.3479 23.6875 37.0173 23.6875 36.3611V17.6384C23.6875 16.9822 23.6875 16.651 23.6328 16.3757C23.4059 15.2352 22.5139 14.3444 21.3734 14.1175C21.0957 14.0623 20.7617 14.0623 20.0938 14.0623C19.4258 14.0623 19.0912 14.0623 18.8135 14.1175C17.673 14.3444 16.7821 15.2352 16.5552 16.3757C16.5 16.6535 16.5 16.9881 16.5 17.656Z" stroke="#DDCBA2" stroke-width="3" stroke-linecap="round" stroke-linejoin="round"/>
</svg>
