<svg width="56" height="54" viewBox="0 0 56 54" fill="none" xmlns="http://www.w3.org/2000/svg">
<rect width="56" height="54" rx="18" fill="#272727"/>
<path d="M18 35.7319V18.2694C18 16.8295 18 16.1087 18.2668 15.6826C18.4997 15.3108 18.8586 15.0667 19.2571 15.0083C19.7135 14.9414 20.2732 15.2805 21.3911 15.9576L35.806 24.6889L35.8112 24.6915C37.0466 25.4398 37.6647 25.8142 37.8674 26.3131C38.0442 26.7483 38.0442 27.2508 37.8674 27.686C37.6644 28.1856 37.0449 28.5615 35.806 29.3119L21.3911 38.0432C20.2724 38.7208 19.7136 39.0585 19.2571 38.9917C18.8586 38.9333 18.4997 38.6892 18.2668 38.3174C18 37.8913 18 37.1719 18 35.7319Z" stroke="#DDCBA2" stroke-width="4" stroke-linecap="round" stroke-linejoin="round"/>
</svg>
