<svg width="64" height="266" viewBox="0 0 64 266" fill="none" xmlns="http://www.w3.org/2000/svg">
<path d="M23.5 248.5V262.5V265.5H7V262.5L6 247V235.5V231L7 225L9 219V215L9.5 214H13.5L17 211L15 203L13 203.5L9.5 203L6 201L4 197V192.5L7 189L4 188V184.5L5.5 180.5L3 177L1.5 175.5L1 169L2 164C2.16667 163.5 0.8 157.3 2 156.5C3.2 155.7 5.5 150.833 5 150.5L13 143H21L20.5 141L18.5 137.5L2 132L1.5 125.5L9.5 121L12.5 116L19.5 110L17 104L18.5 99.5L20.5 96C20.5 95.3333 22.5 94.3 22.5 93.5C22.5 92.7 23 91.5 22.5 90.5V89V87H24.5V83.5C24.5 82.3 25.3333 71.8333 25 70.5L18 68L17 51.5L20 31L24 20.5V12.5L28.5 7V1L57 5V9H52V15L53.5 17V18.5V22H50.5L52 27L49 29L48 40.5L50 43V57.5L50.5 66.5H44L46.5 70.5V75L44 78V80.5L45.5 83.5L46.5 85C47 85.3333 48.2 86.2 49 87C49.8 87.8 51.3333 89 52 89.5V90L49 94.5L50.5 97.5L52 99.5L52.5 102.5L50.5 105.5L51.5 110L50.5 116L58.5 117.5L62.5 121L61 125C60.5 125.5 59.3 126.5 58.5 126.5C57.7 126.5 52.1667 121 50.5 121L49 125.5L44 123L50 127L55 130L57.5 136.5L55 142L50 148L51.5 150.5L53 155C51.5 155.667 48.8 157.4 50 159C51.5 161 52 160.5 53 162.5C53.8 164.1 53.3333 164.5 53 164.5V170.5H50L48.5 174.5V179V185.5L44 187.5C43.5 188.667 42.5 191.3 42.5 192.5L40 195C39.5 196 38.5 198.4 38.5 200C38.5 201.6 39.5 202.667 40 203V204.5L44 207L42.5 211L40 213C39.3333 214 38.4 216.2 40 217C41.6 217.8 40.6667 220.333 40 221.5L36.5 225L31 226.5L29.5 234L23.5 248.5Z" fill="#A30000"/>
<path d="M44 123L50 127L55 130L57.5 136.5L55 142L50 148L51.5 150.5L53 155C51.5 155.667 48.8 157.4 50 159C51.5 161 52 160.5 53 162.5C53.8 164.1 53.3333 164.5 53 164.5V170.5H50L48.5 174.5V179V185.5L44 187.5C43.5 188.667 42.5 191.3 42.5 192.5L40 195C39.5 196 38.5 198.4 38.5 200C38.5 201.6 39.5 202.667 40 203V204.5L44 207L42.5 211L40 213C39.3333 214 38.4 216.2 40 217C41.6 217.8 40.6667 220.333 40 221.5L36.5 225L31 226.5L29.5 234L23.5 248.5V262.5V265.5H7V262.5L6 247V235.5V231L7 225L9 219V215L9.5 214H13.5L17 211L15 203L13 203.5L9.5 203L6 201L4 197V192.5L7 189L4 188V184.5L5.5 180.5L3 177L1.5 175.5L1 169L2 164C2.16667 163.5 0.8 157.3 2 156.5C3.2 155.7 5.5 150.833 5 150.5L13 143H21L20.5 141L18.5 137.5L2 132L1.5 125.5L9.5 121M44 123L9.5 121M44 123L49 125.5L50.5 121C52.1667 121 57.7 126.5 58.5 126.5C59.3 126.5 60.5 125.5 61 125L62.5 121L58.5 117.5L50.5 116L51.5 110L50.5 105.5L52.5 102.5L52 99.5L50.5 97.5L49 94.5L52 90V89.5C51.3333 89 49.8 87.8 49 87C48.2 86.2 47 85.3333 46.5 85L45.5 83.5L44 80.5V78L46.5 75V70.5L44 66.5H50.5L50 57.5V43L48 40.5L49 29L52 27L50.5 22H53.5V18.5V17L52 15V9H57V5L28.5 1V7L24 12.5V20.5L20 31L17 51.5L18 68L25 70.5C25.3333 71.8333 24.5 82.3 24.5 83.5C24.5 84.7 24.5 86.3333 24.5 87H22.5V89V90.5C23 91.5 22.5 92.7 22.5 93.5C22.5 94.3 20.5 95.3333 20.5 96L18.5 99.5L17 104L19.5 110L12.5 116L9.5 121" stroke="white"/>
</svg>
